<svg xmlns="http://www.w3.org/2000/svg" viewBox="0 0 453.85 148.91"><defs><style>.cls-1{fill:#fff;}.cls-2{font-size:28px;font-family:CambriaMath, Cambria Math;}.cls-3{letter-spacing:-0.01em;}.cls-4{letter-spacing:-0.01em;}.cls-5{letter-spacing:-0.01em;}</style></defs><title>iisc_logoAsset 2</title><g id="Layer_2" data-name="Layer 2"><g id="Layer_1-2" data-name="Layer 1"><rect class="cls-1" x="115.34" width="312.82" height="113.81"/><g id="Layer_1-2-2" data-name="Layer 1-2"><path class="cls-1" d="M0,113.81V0H115.34V113.81Zm.39-10.14.49.23a24.61,24.61,0,0,1,2.74,1.57,8.35,8.35,0,0,1,1.93,2A2.1,2.1,0,0,1,5,110.56a8.77,8.77,0,0,1-2.16,1.09c-.6.22-.28.62-.34.94s.22.4.48.43c1.57.18,3.14.4,4.71.54a38.92,38.92,0,0,0,9.34-.31,41.39,41.39,0,0,0,8.59-2.48,42.43,42.43,0,0,1,7.86-2.47,6.83,6.83,0,0,1,3.67,0,2,2,0,0,0,1.72-.21,1.18,1.18,0,0,0,.29-1.91,7.88,7.88,0,0,1-.68-1.2c-.16-.3-.08-.5.26-.6,1.21-.39,2.41-.85,3.64-1.17a64.08,64.08,0,0,1,14.26-1.73,73.82,73.82,0,0,1,10,.49,44.89,44.89,0,0,1,8,1.52c1,.29,2,.66,3,1a6,6,0,0,1-.84,1.54,1.28,1.28,0,0,0,.73,2.22,3.62,3.62,0,0,0,2-.17,1.36,1.36,0,0,1,.6-.1c.93.12,1.87.25,2.78.42a44.36,44.36,0,0,1,7.65,2.48,41.31,41.31,0,0,0,8.66,2.44A47.44,47.44,0,0,0,113,113c.45-.07.41-.37.42-.66s.13-.54-.32-.71a9.47,9.47,0,0,1-2.2-1.11,2.11,2.11,0,0,1-.58-3,6.45,6.45,0,0,1,1.16-1.39,12.59,12.59,0,0,1,3.35-2.12.65.65,0,0,0,.33-.38,6.68,6.68,0,0,0,0-1l-.13,0-.28.06a31.78,31.78,0,0,1-11,.71A40.3,40.3,0,0,1,94.69,101c-2.45-.89-4.9-1.75-7.38-2.56a19.61,19.61,0,0,0-2.58-.5c0-.43-.06-.85-.08-1.27A5.68,5.68,0,0,0,88.79,95l.48,1.68c.15,0,.25,0,.34,0a8.05,8.05,0,0,0,7.27-5.18,1.34,1.34,0,0,1,.56-.57,8.85,8.85,0,0,0,4.91-4.81s.05,0,.09-.06a5.54,5.54,0,0,0,2.47,2.32c1,.51,1.21.4,1.74-.73a1.47,1.47,0,0,0,.11-.46c.07-.46.09-.93.17-1.38a43.17,43.17,0,0,0,.69-9.22c0-.13,0-.27,0-.4l.44.33.44.31a16.87,16.87,0,0,0-.66-9.37.67.67,0,0,1,.09-.68,4.47,4.47,0,0,0,.46-1.33c.12-.67.14-1.35.22-2s.2-1.39.29-2.08c.12-1,.23-2,.33-3,.07-.69.12-1.38.18-2l1.87.2c0-.76-.07-1.44-.14-2.1a13.75,13.75,0,0,0-1.89-6.08,9,9,0,0,1-1.14-4.14,6.21,6.21,0,0,0-.27-1.35c-.32-1-.73-2-1-3-.51-1.69-.95-3.41-1.42-5.11,0,0,0,0,.06-.1a1,1,0,0,0,1.26-.56,2,2,0,0,0-.23-2.17,1,1,0,0,0-1.43-.3c-.34-.58-.63-1.15-1-1.67s-.82-1-1.27-1.51a.54.54,0,0,1-.14-.69,1.9,1.9,0,0,0-1.4-2.46,1.11,1.11,0,0,1-.94-.65c-1.12-1.73-2.2-3.49-3.36-5.2a11.25,11.25,0,0,0-4.74-4.24.59.59,0,0,1-.44-.69,1.74,1.74,0,0,0-2-1.93.85.85,0,0,1-.57-.22,21.85,21.85,0,0,0-5.45-3.89,2.83,2.83,0,0,1-1.08-.89,6.31,6.31,0,0,0-1.31-1.32,16.1,16.1,0,0,0-6.84-2.6,8,8,0,0,1-2-.45,18.13,18.13,0,0,0-4.09-1.58,34.06,34.06,0,0,0-7.52-.9,59.11,59.11,0,0,0-11.59.54,16.31,16.31,0,0,0-5.91,2,1.88,1.88,0,0,1-.68.19,23.37,23.37,0,0,0-5.48,1.35A8.18,8.18,0,0,0,33,8a.73.73,0,0,1-.29.23,21.93,21.93,0,0,0-6,4.18.6.6,0,0,1-.4.17c-1.45,0-2.11.62-2.06,2a.47.47,0,0,1-.31.51,19.84,19.84,0,0,0-2.17,1.31,14,14,0,0,0-3.29,3.78c-1,1.52-2,3-2.91,4.56a.78.78,0,0,1-.6.39,2,2,0,0,0-1,.48,1.8,1.8,0,0,0-.46,2.26l-2.63,3.54a1,1,0,0,0-1.23.3,2,2,0,0,0-.36,2.07,1,1,0,0,0,1.32.74,1,1,0,0,1,0,.24c-.36,1.22-.77,2.43-1.09,3.66A19.51,19.51,0,0,1,8,43a3.5,3.5,0,0,0-.24,1.11c-.08.55-.1,1.11-.21,1.65a5.42,5.42,0,0,1-.54,2,13.89,13.89,0,0,0-2.19,6.13c-.12.86-.15,1.73-.22,2.69l1.89-.21,0,.16q.24,2.81.5,5.62c0,.15.06.31.08.47a12.88,12.88,0,0,1,.39,3A2.07,2.07,0,0,0,8,66.74a.77.77,0,0,1,.11.81,16,16,0,0,0-.94,7.31c.07.65.19,1.3.29,2l.91-.67v2.34A64.64,64.64,0,0,0,9.15,87a2.16,2.16,0,0,0,.75,1.56.63.63,0,0,0,.5.1,5.32,5.32,0,0,0,2.75-2c.14-.2.25-.39.43-.63a8.66,8.66,0,0,0,4.86,4.84,1.28,1.28,0,0,1,.7.71,8,8,0,0,0,6.68,5.08c.84.1.9.06,1.12-.74.09-.31.14-.63.22-1a5.41,5.41,0,0,0,4.16,1.71L31.23,98a1.86,1.86,0,0,1-.34.07,20.83,20.83,0,0,0-5.1,1.27c-2.53.91-5,1.89-7.57,2.72a30.16,30.16,0,0,1-15,1c-.81-.14-1.62-.32-2.45-.48Z"/><path d="M.39,103.67l.37-1.09c.83.16,1.63.33,2.45.48a30.11,30.11,0,0,0,15-1c2.55-.84,5.05-1.82,7.58-2.72A20.28,20.28,0,0,1,30.9,98l.33-.07.1-1.33a5.38,5.38,0,0,1-4.16-1.71c-.08.38-.13.7-.22,1-.23.8-.29.84-1.12.74a8.07,8.07,0,0,1-6.69-5.08,1.25,1.25,0,0,0-.69-.72A8.57,8.57,0,0,1,13.59,86c-.17.26-.3.44-.43.63a5.34,5.34,0,0,1-2.77,2,.66.66,0,0,1-.51-.1A2.18,2.18,0,0,1,9.14,87a64.66,64.66,0,0,1-.84-8.45V76.2l-.9.67c-.1-.71-.23-1.36-.29-2a16,16,0,0,1,.94-7.31.77.77,0,0,0-.12-.81,2.13,2.13,0,0,1-.41-1.19,12.88,12.88,0,0,0-.39-3c0-.16-.06-.32-.08-.47l-.51-5.62a.41.41,0,0,0,0-.16l-1.88.21c.07-1,.1-1.83.21-2.69A13.9,13.9,0,0,1,7,47.71a5.42,5.42,0,0,0,.54-2c.11-.54.13-1.1.21-1.65A3.24,3.24,0,0,1,8,43a19.87,19.87,0,0,0,1.42-4.51c.32-1.23.73-2.44,1.09-3.66a1.94,1.94,0,0,0,0-.24,1.05,1.05,0,0,1-1.33-.74,2,2,0,0,1,.37-2.07,1,1,0,0,1,1.23-.3l2.63-3.53a1.77,1.77,0,0,1,.46-2.25,2,2,0,0,1,1-.49.76.76,0,0,0,.6-.38c1-1.52,1.92-3.06,2.91-4.56a14.19,14.19,0,0,1,3.29-3.78,18.39,18.39,0,0,1,2.17-1.31.47.47,0,0,0,.3-.51c0-1.42.62-2.06,2.06-2a.62.62,0,0,0,.41-.18,22.14,22.14,0,0,1,6-4.19A.73.73,0,0,0,32.94,8a8.25,8.25,0,0,1,4.31-3.2,23.37,23.37,0,0,1,5.48-1.35,1.88,1.88,0,0,0,.68-.19,16.31,16.31,0,0,1,5.91-2A60.62,60.62,0,0,1,60.9.74a34.06,34.06,0,0,1,7.52.9,18.4,18.4,0,0,1,4.1,1.58,7.41,7.41,0,0,0,2,.45,16.23,16.23,0,0,1,6.84,2.6,6.31,6.31,0,0,1,1.31,1.32,2.91,2.91,0,0,0,1.08.89,21.85,21.85,0,0,1,5.45,3.89.87.87,0,0,0,.57.22,1.74,1.74,0,0,1,2,1.93.59.59,0,0,0,.46.68A11.49,11.49,0,0,1,97,19.45c1.16,1.71,2.24,3.47,3.36,5.2a1.1,1.1,0,0,0,.94.65,1.9,1.9,0,0,1,1.4,2.46.55.55,0,0,0,.14.7c.45.48.87,1,1.27,1.5a19.11,19.11,0,0,1,1,1.68,1,1,0,0,1,1.43.29,2,2,0,0,1,.23,2.17,1,1,0,0,1-1.26.56c0,.05-.06.08-.06.1.47,1.71.92,3.42,1.42,5.11.3,1,.71,2,1,3a6.85,6.85,0,0,1,.26,1.35,9,9,0,0,0,1.14,4.14,13.75,13.75,0,0,1,1.89,6.08c.07.66.09,1.33.14,2.1l-1.87-.19c-.06.66-.1,1.35-.18,2-.1,1-.21,2-.33,3-.09.7-.2,1.39-.29,2.09s-.1,1.36-.22,2A4.37,4.37,0,0,1,108,66.8a.69.69,0,0,0-.09.68,16.85,16.85,0,0,1,.66,9.37l-.44-.31-.44-.32c0,.13,0,.26,0,.39a43.17,43.17,0,0,1-.69,9.22c-.08.45-.1.92-.16,1.38a1.83,1.83,0,0,1-.12.46c-.53,1.14-.69,1.25-1.73.74a5.54,5.54,0,0,1-2.48-2.33s-.08,0-.09.06A8.85,8.85,0,0,1,97.48,91a1.31,1.31,0,0,0-.56.58,8.07,8.07,0,0,1-7.27,5.18,2.25,2.25,0,0,1-.34,0q-.24-.82-.48-1.68a5.64,5.64,0,0,1-4.14,1.66c0,.42,0,.85.08,1.27a18.12,18.12,0,0,1,2.58.51c2.48.8,4.93,1.67,7.38,2.55a39.78,39.78,0,0,0,9.17,2.37,31.78,31.78,0,0,0,10.95-.71l.28-.06a.31.31,0,0,1,.13,0,6.55,6.55,0,0,1,0,1,.62.62,0,0,1-.33.38,12.59,12.59,0,0,0-3.35,2.12,6.7,6.7,0,0,0-1.16,1.39,2.1,2.1,0,0,0,.58,3,9.09,9.09,0,0,0,2.2,1.11c.45.17.33.44.32.72s0,.58-.42.65a47.09,47.09,0,0,1-13.77.29,40.69,40.69,0,0,1-8.66-2.43A44.4,44.4,0,0,0,83,108.4c-.92-.18-1.86-.3-2.78-.42a1.36,1.36,0,0,0-.6.1,3.62,3.62,0,0,1-2,.17,1.27,1.27,0,0,1-.72-2.22,6,6,0,0,0,.83-1.54c-1.09-.38-2.06-.74-3-1a44.89,44.89,0,0,0-8-1.52,72.22,72.22,0,0,0-10-.48,64,64,0,0,0-14.26,1.72c-1.23.32-2.43.78-3.64,1.17-.34.11-.43.3-.26.61a8.29,8.29,0,0,0,.68,1.19,1.19,1.19,0,0,1-.29,1.91,2,2,0,0,1-1.72.22,6.73,6.73,0,0,0-3.67,0,43.2,43.2,0,0,0-7.86,2.47,42,42,0,0,1-8.59,2.49,39.44,39.44,0,0,1-9.34.3c-1.57-.14-3.14-.35-4.71-.54-.26,0-.55,0-.48-.43s-.25-.72.34-.94a8.6,8.6,0,0,0,2.16-1.09,2.11,2.11,0,0,0,.54-3.13,8.8,8.8,0,0,0-1.94-2A24.77,24.77,0,0,0,.88,103.9ZM29,40.62c-.16.9-.26,1.78-.47,2.61a8.68,8.68,0,0,0-.33,4.49,5.76,5.76,0,0,1,.11,1.09c.13,1.76.25,3.51.37,5.26a8,8,0,0,1,0,1.38,18.53,18.53,0,0,0-.23,4.28,13.1,13.1,0,0,1,.32,2.36c0,1.26.66,1.94,1.35,2.81,1.2,1.52,2.25,3.18,3.32,4.81a16.33,16.33,0,0,0,3.27,4,2,2,0,0,1,.19.22l-1.35.53a11.92,11.92,0,0,0,2.81,1.86c2.92,1.16,6,1.92,8.73,3.63.07-.19.14-.35.19-.5A88.4,88.4,0,0,0,50.43,67a152.56,152.56,0,0,0,1.94-16.09c.36-5,.49-10,.48-15a9,9,0,0,0-.61-3.64,6.6,6.6,0,0,1-.53-3.19,1.34,1.34,0,0,0-.28-1,10.36,10.36,0,0,1-1.92-3.62,3.45,3.45,0,0,1,.42-3.13,7.81,7.81,0,0,1,1.21-1.23,9.61,9.61,0,0,1,4.24-1.77,1.53,1.53,0,0,0,1.31-1.68c0-1-.07-2,0-3a3.88,3.88,0,0,1,.47-1.44c.2-.41.4-.89,1-.93a.33.33,0,0,0-.19,0c-1.63.14-3.26.19-4.87.44s-3,.74-4.49,1a5.68,5.68,0,0,0-3.09,1.79c-.5.49-1,1-1.55,1.43a5.65,5.65,0,0,1-3.32,1.46,2.11,2.11,0,0,0-1.49.65q-1.63,1.78-3.25,3.59c-.46.51-.9,1.07-1.38,1.65-.1-.32-.18-.55-.29-.91-.41.58-.79,1.06-1.11,1.56a23.57,23.57,0,0,0-2.41,6c-.27.93-.55,1.15-1.45,1.23,0,1.2,0,2.4,0,3.6a5.87,5.87,0,0,1-.76,3.17,2.2,2.2,0,0,0-.28,1.88.81.81,0,0,0,.12.29l.28.42-.09.09ZM79,73.91a10.21,10.21,0,0,0,1.24-1.2c1-1.32,1.94-2.66,2.84-4a23,23,0,0,1,3.8-4.92.44.44,0,0,0,.15-.32c-.18-1.35.69-2.59.39-4,0-.12.06-.26.06-.38a12.34,12.34,0,0,0,0-1.61,11.86,11.86,0,0,1-.2-3.71,11.7,11.7,0,0,0,.19-1.67c.11-1.56.1-3.14.31-4.69a9.05,9.05,0,0,0-.18-3.36c-.24-1-.42-2-.59-3,0-.27,0-.58.42-.44,0-.17-.07-.37,0-.4.59-.34.31-.94.45-1.42a.47.47,0,0,0-.07-.36,5.82,5.82,0,0,1-1.08-3.55c-.08-1.25,0-2.48,0-3.77-.9.11-1.25-.47-1.47-1.23s-.47-1.56-.73-2.33a15.8,15.8,0,0,0-2.43-4.7c-.1-.13-.22-.26-.38-.43-.09.31-.16.52-.25.84-.52-.62-1-1.18-1.46-1.73-1-1.14-2-2.28-3-3.39a2.12,2.12,0,0,0-1.69-.76,2.76,2.76,0,0,1-.8-.15A7.6,7.6,0,0,1,70.92,15a7.7,7.7,0,0,0-4.08-2.4,53.34,53.34,0,0,0-6.4-1.17c-.69-.07-1.38-.08-2.14-.12a4.62,4.62,0,0,1,1.12,3.93c0,.43-.07.86-.1,1.29a1.52,1.52,0,0,0,1.39,1.88c.19,0,.38.07.56.12A8.55,8.55,0,0,1,65.81,21a3.39,3.39,0,0,1,.79,2.86A8.46,8.46,0,0,1,65,27.51a2.34,2.34,0,0,0-.67,2.08.88.88,0,0,1,0,.28,12.29,12.29,0,0,1-.94,3.58,2.06,2.06,0,0,0-.17.69c0,1-.05,2.08,0,3.12a182.92,182.92,0,0,0,1.58,24.41,108,108,0,0,0,3.1,15.11c.31,1.06.66,2.09,1,3.18a9.13,9.13,0,0,1,1.1-.62c2-.81,4-1.65,6-2.38a12.48,12.48,0,0,0,3.93-2l.55-.48ZM58.27,92.5a81.17,81.17,0,0,0-10.91.62,79.69,79.69,0,0,0-13.91,3.11c-.82.25-1,.51-1,1.38a2.92,2.92,0,0,0,.23,1c.76,1.78,1.52,3.55,2.3,5.32.29.69.38.72,1.07.38l.17-.09a21.34,21.34,0,0,1,4.78-2,61.75,61.75,0,0,1,14.5-2,71.49,71.49,0,0,1,10.35.37c4.92.53,9.77,1.27,14.18,3.73.56.32.68.26.94-.34.79-1.82,1.58-3.63,2.36-5.46a3,3,0,0,0,.2-1,1.12,1.12,0,0,0-1-1.36A77,77,0,0,0,58.27,92.5ZM25,53.43l-5.3-2.81c-1.84-.95-3.71-1.86-5.53-2.87a13,13,0,0,1-4.67-4.13c-.15-.22-.28-.44-.48-.76a3.67,3.67,0,0,0-.15,2.87A7.24,7.24,0,0,0,11,48.52c1,.91,2,1.79,3,2.69a16.29,16.29,0,0,1,4.64,6.31,2.38,2.38,0,0,0,1,1.23,12.75,12.75,0,0,0,7.77,1.75.3.3,0,0,0,.25-.17A1,1,0,0,0,27.16,59a.86.86,0,0,0-.21-.07A18.09,18.09,0,0,1,18.76,54c-.73-.78-1.37-1.66-2.06-2.51l.42-.29c.1-.07.25-.14.39-.23a16.83,16.83,0,0,0,10,7.13c.06-.39.13-.72.16-1.05.08-1,.2-1.94.19-2.91,0-.8-.19-1.61-.25-2.42-.09-1.27-.14-2.56-.19-3.84,0-.31-.13-.43-.47-.44-.94,0-1.88-.08-2.82-.19a18,18,0,0,1-11.94-6.64c-.37-.47-.7-1-1.07-1.48l.74-.47c3.7,5.4,8.88,7.82,15.16,7.92.38-1.89.74-3.68,1.1-5.52-4.17-.29-7.89-1.86-11.63-3.38a27.16,27.16,0,0,0,8.11,5l-.34.78L24,43.44c-1.52-.77-3.08-1.49-4.56-2.34a14.6,14.6,0,0,1-4.85-4.16.64.64,0,0,0-.25-.21l-3.13-1.34c-.11.28-.21.56-.3.85-.35,1.41-.58,2.86-1.06,4.22a2.91,2.91,0,0,0,.62,3c.17.23.35.46.54.67A18.15,18.15,0,0,0,16.51,48c2.38,1.23,4.79,2.42,7.17,3.66.62.32,1.19.73,1.8,1.11Zm74.27-2c-.54.7-1,1.36-1.53,2a18.06,18.06,0,0,1-8.94,5.5c-.33.1-.49.26-.49.59v.58c0,.3.12.42.43.41.93-.05,1.86,0,2.79-.12a9.83,9.83,0,0,0,5.23-1.95,1.46,1.46,0,0,0,.45-.59,13.34,13.34,0,0,1,2.92-4.75c1.34-1.37,2.79-2.64,4.19-4a13.4,13.4,0,0,0,2.55-2.91,4.19,4.19,0,0,0,.37-2.6,2.92,2.92,0,0,0-.32-.75,2.48,2.48,0,0,0-.19.26,9.35,9.35,0,0,1-3,3.25c-1.64,1.08-3.34,2.07-5.07,3-2.12,1.15-4.29,2.21-6.43,3.32-.42.22-.8.51-1.22.78l-.51-.72c.22-.16.46-.32.7-.47,2.12-1.12,4.23-2.25,6.36-3.35a35.84,35.84,0,0,0,5.63-3.26,9.24,9.24,0,0,0,3-3.59,1.4,1.4,0,0,0,.06-.81c-.2-.94-.44-1.87-.67-2.79s-.53-2.06-.81-3.15l-3.23,1.37a1.07,1.07,0,0,0-.3.3,22.49,22.49,0,0,1-1.54,1.7,28.48,28.48,0,0,1-7.9,4.74l-.12,0-.29-.68c1.45-.76,2.88-1.47,4.27-2.24a16,16,0,0,0,3.82-2.86c-3.74,1.54-7.47,3.07-11.63,3.38.36,1.85.72,3.65,1.09,5.52,6.31-.11,11.49-2.53,15.17-7.93l.72.46c-.14.22-.25.4-.38.58a18.23,18.23,0,0,1-14.74,7.74c-1.19.05-1.18,0-1.23,1.23-.06,1.42-.11,2.84-.2,4.26a10.19,10.19,0,0,0-.19,2.76c.16.79.25,1.59.37,2.42a16.91,16.91,0,0,0,10-7.15ZM80.58,106.77c.84.14,1.78.28,2.72.46a42.29,42.29,0,0,1,7.86,2.58,36.6,36.6,0,0,0,17.19,2.55c.84-.07,1.67-.17,2.63-.27l-.6-.43a3.44,3.44,0,0,1-1.23-4.44,6.87,6.87,0,0,1,2-2.37l.43-.38c-.68.08-1.23.15-1.78.19a29.85,29.85,0,0,1-11.43-1.23c-2.91-.91-5.75-2-8.61-3a20,20,0,0,0-4.88-1.2.57.57,0,0,0-.68.41c-.67,1.62-1.34,3.25-2.1,4.83A20.63,20.63,0,0,1,80.58,106.77Zm-45.17,0a25.35,25.35,0,0,1-1.53-2.44c-.76-1.57-1.42-3.18-2.09-4.79a.53.53,0,0,0-.65-.38,17.81,17.81,0,0,0-4.37,1c-2.56.92-5.09,1.91-7.66,2.77a31.27,31.27,0,0,1-12.36,1.69l-2.33-.18a5.58,5.58,0,0,1,.46.39,14.57,14.57,0,0,1,1.75,2,3.35,3.35,0,0,1-.82,4.59c-.23.19-.48.36-.79.59l.72.1c1,.08,1.94.19,2.92.25a38.88,38.88,0,0,0,7.85-.29,39.58,39.58,0,0,0,8.69-2.47,36.21,36.21,0,0,1,10.22-2.87ZM60.85,85.2a36.81,36.81,0,0,1-.71-3.75c-.22-2.17-.34-4.34-.43-6.51-.24-5.48-.54-11-.62-16.45C59,50.31,59,42.14,59,34c0-.62.09-1.25,0-1.87a4,4,0,0,0-1.07-3A3.35,3.35,0,0,0,57,31.3c-.06,1,0,1.95,0,2.93q0,10.85-.05,21.69c0,.92,0,1.83,0,2.74q-.31,8.57-.66,17.12c-.12,3.16-.18,6.34-1.21,9.37l1.32.81a3.68,3.68,0,0,1,3.27,0Zm2.78-57.44A9.18,9.18,0,0,0,65.68,24a2.66,2.66,0,0,0,.07-1.05c-.13-.45-.3-1.05-.65-1.26A11.39,11.39,0,0,0,61.33,20,.62.62,0,0,0,61,20,3.4,3.4,0,0,0,60,22a2.44,2.44,0,0,1-1.75,2.54A2.08,2.08,0,0,1,56.15,23,2,2,0,0,1,56,22a1.27,1.27,0,0,0-.32-1.1c-.17-.22-.35-.45-.5-.69A.45.45,0,0,0,54.6,20h0c-1.13.48-2.27.93-3.39,1.42a1.57,1.57,0,0,0-1,1.57c0,1.9,1.07,3.32,2.1,4.76a14.59,14.59,0,0,1,11.31,0ZM54.7,38.49a3.22,3.22,0,0,0-.16.61c0,.7-.06,1.41-.08,2.11-.15,6.34-.22,12.67-.88,19-.41,3.84-1,7.67-1.48,11.51a13.42,13.42,0,0,0-.36,3.36,2.88,2.88,0,0,1-.34,1.12c0,.12-.15.21-.18.33-.26,1.27-.52,2.56-.79,3.9l1.59.22c.21-1.37.4-2.66.62-3.95a2.16,2.16,0,0,1,.38-.83c.18-.27.27-.48,0-.76a.83.83,0,0,1-.1-.57c.22-1.72.48-3.42.68-5.14.39-3.43.8-6.86,1.09-10.3s.49-6.86.65-10.3c.12-2.78.12-5.57.15-8.35a2.53,2.53,0,0,0-.83-1.94ZM65.56,80.41c-.21-1-.4-2-.6-2.94a3.55,3.55,0,0,0-.3-1.14,2.53,2.53,0,0,1-.35-2,1.46,1.46,0,0,0,0-.42c-.53-3.61-1.11-7.21-1.57-10.82-.58-4.51-.82-9-1-13.59-.11-3.46-.19-6.91-.3-10.37a3.31,3.31,0,0,0-.17-.69,3,3,0,0,0-.83,2.13,189.59,189.59,0,0,0,.91,19.51c.49,4.82,1.12,9.63,1.68,14.45a.78.78,0,0,1-.09.52c-.26.31-.17.53,0,.81a2,2,0,0,1,.35.69c.11.51.15,1,.23,1.57.13.83.25,1.66.4,2.51ZM19.09,78.14a10.45,10.45,0,0,0,1.7,4c.78,1.15,1.62,2.26,2.39,3.42.44.65.78,1.37,1.19,2.1l-.86.34a6.58,6.58,0,0,0-.42-.84c-.85-1.27-1.69-2.56-2.57-3.82A12,12,0,0,1,18.16,78a1.67,1.67,0,0,0-.82-1.33c-.42.68-1,.7-1.81.43.16.68.28,1.27.46,1.84A21,21,0,0,0,18,83c.5.9.85,1.89,1.26,2.83a1.64,1.64,0,0,0,.38.63c1,.7,2,1.38,3,2a10.82,10.82,0,0,0,1.56.68,20.42,20.42,0,0,0,.09-4.69,11.13,11.13,0,0,0-1.26-4.24c-.1-.18-.26-.41-.45-.45A10.59,10.59,0,0,1,19.09,78.14Zm72.64,11a13.28,13.28,0,0,0,4.16-2.27,3,3,0,0,0,.93-1.37,31,31,0,0,1,1.71-3.41,14.73,14.73,0,0,0,1.8-4.36,5.48,5.48,0,0,0,.06-.61c-1,.21-1.08.19-1.77-.46a1.83,1.83,0,0,0-.8,1.39,11.86,11.86,0,0,1-2.34,5.29c-.78,1.1-1.54,2.2-2.28,3.31A14.85,14.85,0,0,0,92.47,88l-.78-.32a3.48,3.48,0,0,1,.21-.48c.72-1.15,1.44-2.3,2.18-3.44.6-.94,1.26-1.84,1.82-2.81a7.24,7.24,0,0,0,1-2.59c-1.06.44-2.12.92-3.21,1.31a1.33,1.33,0,0,0-.83.69A15.1,15.1,0,0,0,91.73,89.12ZM101.65,68l-2.08-.2c-.23.78-.43,1.55-.69,2.3-1,2.9-3.24,5.12-4.58,7.86l-.8-.36a7.62,7.62,0,0,1,.41-.81c.54-.87,1.11-1.72,1.64-2.59.76-1.27,1.55-2.54,2.25-3.84a7.61,7.61,0,0,0,.82-2.8l-1.89-.81c-2.46,3.64-3.22,7.74-3.42,12.07A8.38,8.38,0,0,0,96.86,77c2.77-2.37,4-5.57,4.78-9Zm-84.29-.44A9.6,9.6,0,0,0,18.5,71c.91,1.54,1.91,3,2.85,4.54.41.65.77,1.32,1.18,2l-.76.32c-.94-1.43-1.86-2.78-2.73-4.19a32.59,32.59,0,0,1-1.77-3.23,22.72,22.72,0,0,1-.88-2.68l-2.07.2a20.13,20.13,0,0,0,2.17,5.85,11.25,11.25,0,0,0,3.58,3.87,7.89,7.89,0,0,0,2.59,1.09c-.2-4.33-.94-8.44-3.4-12.07ZM93.89,65.4a18.57,18.57,0,0,1-1.2,1.67c-.53.6-1.13,1.13-1.71,1.69a6.52,6.52,0,0,0-2.32,3.84l-.86-.11a6,6,0,0,1,1.82-3.61c.76-.79,1.57-1.52,2.31-2.3A15.72,15.72,0,0,0,93,65.11c-.88-.19-1.61-.36-2.34-.49a.48.48,0,0,0-.36.16,13.2,13.2,0,0,0-3.21,6.7,23.43,23.43,0,0,0,0,2.65.74.74,0,0,0,.21,0,12.08,12.08,0,0,0,5.27-2.71C94.2,70,94.77,68,96,66.27Zm-73.81.86,1.35,2.53a10.17,10.17,0,0,0,.7,1.2,10.36,10.36,0,0,0,5,3.68c.56.2,1.14.35,1.77.54a23.9,23.9,0,0,0,0-2.69,13,13,0,0,0-3.18-6.7.47.47,0,0,0-.39-.2c-.73.13-1.46.3-2.26.47a4.86,4.86,0,0,0,.4.7c.51.57,1,1.14,1.54,1.7.74.8,1.52,1.55,2.21,2.39a4.64,4.64,0,0,1,1,2.61l-.73.1a11.62,11.62,0,0,0-.9-2A12.65,12.65,0,0,0,25,68.7a11,11,0,0,1-2.76-3.33Zm8.05-2.91c-.09-.57-.16-1.1-.25-1.63-.05-.25-.21-.35-.49-.34a11.09,11.09,0,0,1-1.63,0,7.83,7.83,0,0,0-4.35.92c-1.21.64-2.39,1.35-3.58,2A11.05,11.05,0,0,1,10,65.76l-1.57-.32c0,.63.25,1,.6,1a19.68,19.68,0,0,1,2.79.3,9.81,9.81,0,0,0,7.66-1.15,10.41,10.41,0,0,1,1.43-.68A23.39,23.39,0,0,1,28.13,63.35Zm79.42,2.07-.5.12a11.62,11.62,0,0,1-5.65.12,16.22,16.22,0,0,1-4.51-2.08,12.54,12.54,0,0,0-4.56-2.06,26.26,26.26,0,0,0-3.2-.11c-1,0-1.11.09-1.17,1.12,0,.26,0,.53,0,.82l1.23.13a19.24,19.24,0,0,1,7.66,2.29,9.4,9.4,0,0,0,6.9,1,17.61,17.61,0,0,1,2.89-.39c.65,0,.91-.2.9-1Zm-82.77,10-1.52-.09c0,.11,0,.25.06.36a1.06,1.06,0,0,0,0,.19,16.78,16.78,0,0,0,4,6.33,7.64,7.64,0,0,0,6.42,2.14c.44-.06.88-.17,1.44-.28a14.91,14.91,0,0,0-1.15-1c-.88-.61-1.76-1.22-2.67-1.77C28.85,79.66,26.27,78.07,24.78,75.39Zm56,8.49.08.17a1.25,1.25,0,0,0,.25.09,7.59,7.59,0,0,0,7-1.57,15.8,15.8,0,0,0,4.47-6.75,2.28,2.28,0,0,0,.09-.51l-1.5.08A12.64,12.64,0,0,1,87,79.65c-1.19.8-2.45,1.51-3.64,2.31C82.51,82.55,81.67,83.23,80.8,83.88Zm1-64.4.51.34q4.15,2.89,8.3,5.77a2.31,2.31,0,0,0,1,.35c.77.09,1.15-.36.94-1.12-.14-.51-.34-1-.52-1.49a11.27,11.27,0,0,0-3.71-5.06c-.53-.42-1.12-.76-1.74-1.2a9,9,0,0,1,0,1c0,.38.13.54.43.74a24.06,24.06,0,0,1,2.51,1.83,9.21,9.21,0,0,1,2.45,3.58l-.82.32c-1.55-3.59-4.5-5.36-8.1-6.36a1.58,1.58,0,0,1-1.23,1.25ZM32.93,18.22c-3.6,1-6.53,2.79-8.06,6.35l-.81-.34c.13-.29.24-.54.36-.78A10.94,10.94,0,0,1,29,18.82c.17-.1.4-.26.42-.4a10.6,10.6,0,0,0,0-1.26h-.07l-.17.07a12.08,12.08,0,0,0-5.73,7.56,1.2,1.2,0,0,0,0,.42c0,.46.29.75.74.71a2.59,2.59,0,0,0,1.21-.34c2.83-1.94,5.65-3.91,8.47-5.87l.41-.29a1.58,1.58,0,0,1-1.32-1.2ZM98.74,34.51a26.25,26.25,0,0,0-1.29-2.76,24.53,24.53,0,0,0-1.91-2.52c-.86-1.07-1.85-2.05-2.09-3.42-.28.28-.57.54-.83.83a.56.56,0,0,0-.12.41,12.94,12.94,0,0,0,2.75,6.18,7.09,7.09,0,0,0,4,2.45c.44.1.69-.08.71-.46a8.07,8.07,0,0,0-.06-1.7,14.59,14.59,0,0,0-1.58-3.89,3.91,3.91,0,0,0-1.78-1.88,16.57,16.57,0,0,1-1.88-1.25,10.69,10.69,0,0,0,1.07,1.58c.78,1,1.62,2,2.36,3a7.79,7.79,0,0,1,1.35,3.3Zm-82.22-.13a8.06,8.06,0,0,1,1.39-3.32c.9-1.22,1.88-2.38,2.82-3.58.22-.29.41-.61.62-.91-.65.35-1.2.82-1.82,1.12a4.2,4.2,0,0,0-1.94,2,14.44,14.44,0,0,0-1.49,3.67A6.82,6.82,0,0,0,16,35.16c0,.51.27.62.76.51a7.47,7.47,0,0,0,4.37-2.9A13.72,13.72,0,0,0,23.51,27a.43.43,0,0,0-.07-.33c-.28-.3-.59-.57-.91-.86A5.78,5.78,0,0,1,21,28.54c-.52.65-1.07,1.27-1.59,1.92a9.91,9.91,0,0,0-1.83,3.24c-.09.27-.16.55-.24.85ZM8.11,62.69a3.74,3.74,0,0,0,.06.46,9,9,0,0,0,.21,1,.59.59,0,0,0,.34.37,10.07,10.07,0,0,0,7.57-.44c2-1,3.94-2.16,5.83-3.21-.55-.22-1.2-.45-1.82-.74a1.16,1.16,0,0,0-1-.06c-1.36.56-2.72,1.11-4,1.69A10.86,10.86,0,0,1,9.42,62.9C9,62.85,8.59,62.77,8.11,62.69ZM93.76,61a7.32,7.32,0,0,1,.81.35c1.34.74,2.69,1.46,4,2.24a10.54,10.54,0,0,0,8.59,1c.15,0,.37-.15.4-.25.13-.51.22-1.05.33-1.64l-.48.08q-1.29.13-2.58.15a13.07,13.07,0,0,1-4.74-1.42c-1.15-.5-2.33-1-3.5-1.42a1,1,0,0,0-.64,0c-.73.27-1.44.59-2.2.9ZM28.44,27.22a1.36,1.36,0,0,0-1.6,1.05c-.11.31-.26.62-.34.94-.27,1.13-.51,2.28-.76,3.41s-.43,2.05-.66,3.1l-.83-.26c.29-1.46.57-2.89.86-4.31A11.35,11.35,0,0,1,26.54,27a.37.37,0,0,0,0-.29,4.2,4.2,0,0,0-.26-.52c-.5.2-1,.43-1.5.58a.49.49,0,0,0-.4.43c-.19.81-.39,1.62-.64,2.41a12.93,12.93,0,0,0-.58,5.49c.07.6.22,1.2.33,1.84a5.26,5.26,0,0,0,2.38-1.72A11.51,11.51,0,0,0,28,30.9,14.25,14.25,0,0,0,28.44,27.22Zm64,9.82a11.65,11.65,0,0,0,.28-5.44c-.3-1.52-.76-3-1.14-4.54a.37.37,0,0,0-.2-.24c-.56-.22-1.13-.42-1.72-.64l-.28.67c1.64,2.65,1.52,5.75,2.43,8.6l-.91.26c-.25-1.19-.45-2.34-.72-3.47-.33-1.34-.64-2.7-1.08-4-.29-.91-.54-1-1.54-.91A14,14,0,0,0,89,33.45a7,7,0,0,0,1.83,2.49A18.71,18.71,0,0,0,92.44,37ZM54.07,1.61a11.68,11.68,0,0,1,2,8.76h3.83a11.68,11.68,0,0,1,2-8.73H58.2c1.2,2.85.46,5.7.3,8.59l-.87-.17a.67.67,0,0,1,0-.2A12.87,12.87,0,0,0,56,2c-.07-.14-.22-.32-.35-.33C55.2,1.59,54.69,1.61,54.07,1.61ZM36.8,81.25a13.07,13.07,0,0,1,3.69,2.21,10.35,10.35,0,0,0,3.33,2.42l-.35.81a8.46,8.46,0,0,1-3-2.06,12.1,12.1,0,0,0-4-2.56l-.51-.18L37,84.33l-1.34.5c.86.41,1.73.76,2.52,1.21a8.27,8.27,0,0,0,4.06,1,5.43,5.43,0,0,0,2.93-.66c-.9-1-1.72-2.08-2.68-3A7,7,0,0,0,40.41,82c-1.1-.47-2.28-.76-3.46-1.14Zm42.34,0L79,80.89c-.93.31-1.79.66-2.68.88a5.73,5.73,0,0,0-2.86,1.66c-.57.6-1.08,1.27-1.63,1.89-.32.36-.67.7-1,1.07a2.24,2.24,0,0,0,.38.19,7.9,7.9,0,0,0,6.11-.25c.86-.37,1.69-.82,2.54-1.22l.54-.24L79,84.33c.37-.83.71-1.6,1.08-2.41l-.42.14a12.4,12.4,0,0,0-4.25,2.73,7.88,7.88,0,0,1-2.87,1.92L72.23,86a21.1,21.1,0,0,0,2.17-1.56A14.17,14.17,0,0,1,79.14,81.3Zm-.65-68.38a3.14,3.14,0,0,0-.76-1.87,12.4,12.4,0,0,0-2-1.8A19.44,19.44,0,0,0,70,6.91c-.46-.13-.67,0-.68.43l2.8,1C74.36,9.11,76,11,78,12.2l-.47.79c-.69-.51-1.33-1-2-1.44-.9-.64-1.76-1.34-2.71-1.89A14.41,14.41,0,0,0,69,8.23c-.1.45-.19.84-.25,1.12,1.07.65,2.08,1.23,3,1.86s1.81,1.27,2.72,1.88a1.2,1.2,0,0,0,.57.24A7.9,7.9,0,0,0,78.49,12.92Zm-40,.1L38,12.24c.79-.59,1.56-1.13,2.28-1.73A13.67,13.67,0,0,1,44.75,8l2-.65-.22-.55a23.42,23.42,0,0,0-5.7,2.1,7.67,7.67,0,0,0-2.66,2.24,3.57,3.57,0,0,0-.7,1.8c1.71.41,3.39.93,4.91-.44a7.29,7.29,0,0,1,1-.73c1-.65,2-1.32,3-1.9s.95-.47.62-1.5c0,0,0-.06-.07-.1l-.25,0a14.59,14.59,0,0,0-6.1,3.08c-.66.58-1.4,1-2.18,1.62ZM18.8,59.3c-.35-.33-.67-.64-1-.92a.43.43,0,0,0-.31,0,15.33,15.33,0,0,1-5.1.22.42.42,0,0,0-.35.13,2.88,2.88,0,0,1-1.84,1.12c-.74.15-1.51.2-2.26.3v1.23c0,.28.12.38.38.44a7.53,7.53,0,0,0,4.58-.09C14.87,61,16.81,60.12,18.8,59.3Zm89.25.72h-1a4,4,0,0,1-3.06-1.35.47.47,0,0,0-.36-.1,15.15,15.15,0,0,1-5.07-.23.48.48,0,0,0-.31,0c-.34.28-.66.59-1,.88,1.6.7,3.16,1.41,4.75,2.07a8.6,8.6,0,0,0,5.72.44c.14,0,.33-.19.34-.3a13.75,13.75,0,0,0,0-1.45Zm-21.89-45a1.32,1.32,0,0,0,.76,1.24,12.75,12.75,0,0,1,3.41,2.6A29,29,0,0,0,92.7,21a3.3,3.3,0,0,0,.9.38,3.51,3.51,0,0,1,1,.48c1,.9,2.22.85,3.56,1-.34-.54-.59-1-.86-1.36,0-.05-.16-.05-.23-.08a1.2,1.2,0,0,1-.37-.15,12.62,12.62,0,0,0-1.48-1.36c-1.1-.7-2.26-1.3-3.4-1.95s-2.5-1.35-3.66-2.17A5.21,5.21,0,0,0,86.16,15.06ZM17.9,22.74a7.06,7.06,0,0,0,2.84-.42A.7.7,0,0,0,21,22.1a2,2,0,0,1,1.65-.83.48.48,0,0,0,.31-.08,17,17,0,0,0,2.22-1.81,13.79,13.79,0,0,1,3.88-3.09,1.28,1.28,0,0,0,.72-1.22,3.25,3.25,0,0,0-2.08.77,2.39,2.39,0,0,1-.58.42Q25.07,17.39,23,18.5a12.65,12.65,0,0,0-3.37,2.34c-.2.21-.28.69-.77.47,0,0-.08.06-.11.09ZM49.22,86.8a11.38,11.38,0,0,1,1.1,1,10.49,10.49,0,0,1,1.23,1.52,1.88,1.88,0,0,1-.17,2.24l1.07-.1v-.82c0-.9,0-1.79,0-2.69a2.68,2.68,0,0,1,.34-1.17,9,9,0,0,0,1.28-4.59c0-.11-.11-.3-.19-.31-.8-.15-1.59-.26-2.44-.38A6.56,6.56,0,0,1,49.22,86.8Zm15.33,4.72a2.19,2.19,0,0,1,.27-2.82,18.1,18.1,0,0,1,1.37-1.4c.18-.17.38-.32.59-.51a6.59,6.59,0,0,1-2.24-5.33c-.76.11-1.46.25-2.17.32-.39,0-.48.2-.46.54a8.93,8.93,0,0,0,1.35,4.49,1.36,1.36,0,0,1,.22.62c0,1,.05,2.07.06,3.11v.89Zm41.2-3.74c.72-3.11-.21-5.94-.89-8.87a8.7,8.7,0,0,1-1.34,1.59,2.55,2.55,0,0,0-.91,2.45,5.68,5.68,0,0,0,0,.72,4.74,4.74,0,0,0,3.09,4.11Zm-95.5,0A4.37,4.37,0,0,0,13,85.16a7.5,7.5,0,0,0,.34-3.64.64.64,0,0,0-.14-.34c-.66-.73-1.34-1.44-2-2.16l0,0A23,23,0,0,0,10,86.45a8.07,8.07,0,0,0,.26,1.28Zm35.24,4.42a.64.64,0,0,0,0-.2A5,5,0,0,0,43.2,88,.44.44,0,0,0,43,88H41c1.16,1.15,2,2.69,3.74,3.17l-.32.83a5.59,5.59,0,0,1-2.84-2,11.75,11.75,0,0,0-4.47-3.45l-.46-.19a2.27,2.27,0,0,0,.3.46c.65.9,1.35,1.78,1.93,2.73a6.23,6.23,0,0,0,1.86,2,5.74,5.74,0,0,0,4.74.63Zm25,0c.39,0,.73.09,1.08.15A5.47,5.47,0,0,0,77,89.67c.59-1,1.33-2,2-2.91a3.79,3.79,0,0,1,.31-.37,10,10,0,0,0-3.44,2c-.62.57-1.17,1.23-1.74,1.85a5.55,5.55,0,0,1-2.6,1.71l-.31-.84c1.8-.47,2.59-2,3.8-3.21a6.76,6.76,0,0,1-1.27.06,2,2,0,0,0-1.8.76,4.54,4.54,0,0,0-1.48,3.47Zm12.38-6.84c-1-.19-1-.2-1.59.39a20.89,20.89,0,0,0-1.94,2,16,16,0,0,0-1.67,2.67,4.28,4.28,0,0,0-.16,1.62c0,.1.18.28.29.3a2.92,2.92,0,0,0,2.7-.73,8.56,8.56,0,0,1,2-1.31c.3-.17.42-.3.42-.63a6.09,6.09,0,0,1,1.4-3.94l.28-.39A8.65,8.65,0,0,0,81.33,88c-.54.76-1,1.6-1.56,2.36-.37.53-.81,1-1.25,1.52l-.54-.6c.61-.87,1.23-1.66,1.76-2.51a10.34,10.34,0,0,1,3.13-3.43ZM37.49,91.85a5.34,5.34,0,0,1-.57-.6c-.57-.79-1.15-1.57-1.67-2.4a8.94,8.94,0,0,0-3.39-3.24l-.31-.13a6.91,6.91,0,0,1,1.59,4.42c0,.12.18.28.31.37a11.53,11.53,0,0,1,1.87,1.21,3,3,0,0,0,2.64.93c.37,0,.53-.17.58-.54a3.94,3.94,0,0,0-.76-2.57,19.34,19.34,0,0,0-3.16-3.66c-.57-.54-.62-.55-1.45-.27a9.17,9.17,0,0,1,2.53,2.55c.76,1.11,1.5,2.22,2.28,3.37,0,0,0,0-.07.09s-.25.29-.42.47ZM11.76,67.62a22.78,22.78,0,0,0,2.86,11.5c0-.33.06-.54.05-.74-.05-1.71,0-3.43-.21-5.12s-.66-3.34-1-5a.59.59,0,0,0-.33-.39A13.28,13.28,0,0,0,11.76,67.62ZM101.34,79a21.59,21.59,0,0,0,2.88-11.38,4.54,4.54,0,0,1-.82.14c-.62,0-.83.33-1,.87a26.67,26.67,0,0,0-1,6.65c-.06,1.24,0,2.48,0,3.72ZM80.67,82.57l.14.13c.48-.36,1-.74,1.46-1.07,1.32-.85,2.66-1.65,4-2.51a12.19,12.19,0,0,0,4.29-4.36,4.5,4.5,0,0,0,.26-.81c-1.23.39-2.39.76-3.53,1.14-.13,0-.23.2-.31.32a10.77,10.77,0,0,1-1,1.42c-1.09,1.16-2.26,2.26-3.36,3.42-.68.74-1.3,1.55-2,2.32Zm-45.36.12a6.71,6.71,0,0,0-.47-.71c-.94-1-1.89-2.07-2.85-3.1-.74-.78-1.51-1.52-2.21-2.33-.39-.45-.59-1.11-1.05-1.43A6.42,6.42,0,0,0,27,74.58c-.57-.2-1.14-.46-1.84-.74a5.53,5.53,0,0,0,.28.9,11.12,11.12,0,0,0,3.66,3.93c2.06,1.37,4.14,2.69,6.2,4ZM81.79,8.22l-.42-.37a15.11,15.11,0,0,0-10.18-3.1A1.2,1.2,0,0,0,70,5.6c.83.3,1.62.61,2.42.88a15,15,0,0,0,4.9,1,3.86,3.86,0,0,1,1.8.38A4.56,4.56,0,0,0,81.79,8.22ZM46,5.58c-.29-.37-.38-.79-.9-.82a15.15,15.15,0,0,0-9.81,2.62c-.34.24-.67.5-1.12.84a5.47,5.47,0,0,0,2.77-.39,3.71,3.71,0,0,1,1.42-.35C41,7.51,43.46,6.53,46,5.58ZM78.11,14a.39.39,0,0,0,.06.11c.72.66,1.42,1.33,2.15,2a.65.65,0,0,0,.47.1,2,2,0,0,1,1.77.63,3,3,0,0,0,.8.53,7.76,7.76,0,0,0,.82.25l1.47.51V17.4c0-.22-.06-.46-.09-.73l-.4.19-.35.14a11.69,11.69,0,0,0-5.62-5.29c.09.51.18,1,.26,1.47l-.4.08C79.13,14,78.38,13.71,78.11,14ZM49.53,80.31c.28-1.33.46-2.62.82-3.86A13.53,13.53,0,0,0,50.84,74c.25-2.44.83-4.85,1.1-7.29.47-4.23.81-8.47,1.2-12.7,0-.43,0-.87.07-1.3C52.35,62,51,71.25,48,80.22Zm-11-1.71-3.82-1.92a7.69,7.69,0,0,1-3.26-2.6A2.61,2.61,0,0,0,29.86,73a5.2,5.2,0,0,1-.09,1,2,2,0,0,0,.47,1.73A5.58,5.58,0,0,0,34,78.29c1.3.25,2.61.43,3.92.66.6.11,1.19.27,1.79.41l.12-.11L39.07,78ZM76.9,78l-.72,1.33c2.07-.37,4-.69,5.92-1.07a5.73,5.73,0,0,0,3.3-2.06A3.32,3.32,0,0,0,86.08,73a1.7,1.7,0,0,1-.51.24c-.45,0-.64.33-.86.66a6.61,6.61,0,0,1-2.31,2.18c-1.62.88-3.27,1.7-4.93,2.56ZM62.82,53c0,.22,0,.45,0,.67.15,2.12.23,4.25.47,6.36.45,3.86,1,7.7,1.48,11.56a9.72,9.72,0,0,1,.36,3.4.71.71,0,0,0,.11.51,4.08,4.08,0,0,1,.64,2c.2.92.39,1.84.58,2.79l1.5-.1C65,71.33,63.67,62.23,62.82,53ZM30.32,18.13l2.35-.76a1.46,1.46,0,0,0,.59-.42,1.78,1.78,0,0,1,2-.76A.54.54,0,0,0,35.8,16c.58-.57,1.19-1.11,1.77-1.66.11-.11.22-.2.37-.33l-1.06-.35c.23-.38-.06-.42-.34-.51l.26-1.43a9.51,9.51,0,0,0-3.26,2.19c-.89.95-1.66,2-2.51,3l-.62-.29C30.38,17.18,30.35,17.63,30.32,18.13ZM88.77,83.25l-1.47,1a8.55,8.55,0,0,0-3,3.25,6.84,6.84,0,0,0-.5,3.17c2.28-2,5-3.57,5.82-6.67ZM32.23,90.64a6.35,6.35,0,0,0-1-4,12.42,12.42,0,0,0-3.91-3.26l-.87.74a7.7,7.7,0,0,0,2.11,3.37C29.71,88.53,31,89.54,32.23,90.64Zm73.11-23.23h-.19a24,24,0,0,1-3,12.19l-.77-.36c.05.61.09,1.14.13,1.72a5.22,5.22,0,0,0,2.1-1.91c.85-1.39,1.6-2.83,2.42-4.24a2.7,2.7,0,0,0,.28-1.85c-.18-1.14-.37-2.28-.56-3.41C105.6,68.84,105.47,68.13,105.34,67.41ZM14.37,81l.16-.13.1-1.62-.77.36a24,24,0,0,1-2.33-5.93,35.68,35.68,0,0,1-.76-6.28.43.43,0,0,0-.18.24c-.27,1.52-.55,3-.78,4.58a4.24,4.24,0,0,0,0,2,19.48,19.48,0,0,0,3,5.26A20.31,20.31,0,0,0,14.36,81Zm75-16.61a9.28,9.28,0,0,1-1.06-.11,1,1,0,0,0-1.06.37c-.85,1.06-1.74,2.09-2.53,3.19-1.22,1.72-2.37,3.5-3.54,5.25,0,0,0,0,.06.19.63-.56,1.24-1.06,1.81-1.61a26.14,26.14,0,0,1,4-3.41.64.64,0,0,0,.2-.2c.72-1.19,1.43-2.4,2.16-3.66ZM34.74,73.25l0,0c-1.39-2.13-2.74-4.27-4.17-6.36a23.1,23.1,0,0,0-2-2.32.61.61,0,0,0-.39-.25c-.53,0-1.07.08-1.63.13a1.19,1.19,0,0,0,.08.2c.69,1.13,1.39,2.25,2.09,3.38a.86.86,0,0,0,.26.28,25.55,25.55,0,0,1,4,3.48C33.57,72.27,34.16,72.75,34.74,73.25ZM90.8,83.81l-.12,0a4.11,4.11,0,0,0-.21.42,9.14,9.14,0,0,1-2.52,4c-.83.78-1.75,1.49-2.62,2.24-.44.38-.85.79-1.28,1.19l.07.11,1-.31c1.21-.35,2.44-.64,3.62-1a2.59,2.59,0,0,0,1.9-2.87c0-.76,0-1.54,0-2.3C90.69,84.75,90.76,84.28,90.8,83.81Zm-65.56-.07c0,.09,0,.17,0,.26,0,1.21.09,2.42.1,3.63a2.47,2.47,0,0,0,1.54,2.58c1.64.6,3.33,1.05,5,1.57a.35.35,0,0,0-.11-.32c-.76-.67-1.48-1.36-2.28-2a11,11,0,0,1-4-5.34A1.85,1.85,0,0,0,25.24,83.74Zm75.25-3.41a1.43,1.43,0,0,0-.14.2c-.57,1-1.12,2-1.71,3a6,6,0,0,0-1.08,4,12.14,12.14,0,0,1-.1,2.38l1.48-.87-.59-.61C100.58,86.19,101,83.4,100.49,80.33Zm-85,0c-.48,3.06-.11,5.85,2.13,8.18l-.58.62,1.48.85v-.45c0-.85-.11-1.69-.07-2.53a3.58,3.58,0,0,0-.34-1.91C17.28,83.47,16.39,81.91,15.5,80.31Zm92.2-33.45c-.82.88-1.61,1.8-2.47,2.65s-1.6,1.43-2.4,2.14A18.55,18.55,0,0,0,99,56.2l-.27.52a.41.41,0,0,0,.27-.07,40.69,40.69,0,0,0,8.53-8.25A1.29,1.29,0,0,0,107.7,46.86ZM8.31,46.75c-.34.94-.34.94.22,1.68A39.54,39.54,0,0,0,17,56.62a3,3,0,0,0,.36.19c-.18-.32-.29-.53-.4-.74a18.7,18.7,0,0,0-3.81-4.42c-1.25-1.14-2.5-2.28-3.71-3.47a12.64,12.64,0,0,1-1.1-1.43ZM22,24.58a1.57,1.57,0,0,1-1.27-1.21c-2.35.56-4.89,3.27-4.77,5.11A15.72,15.72,0,0,0,22,24.58Zm73.26-1.21a1.56,1.56,0,0,1-1.12,1.27c1.12,1.42,4.76,3.7,6,3.75C100,26.45,97.45,23.76,95.23,23.37ZM86.14,92.09,85,92.43a.41.41,0,0,0-.22.17,3.08,3.08,0,0,0-.38,2.83.62.62,0,0,0,.46.29,4.6,4.6,0,0,0,3.38-1.44c1-1,1-2.34,1.71-3.44a17.26,17.26,0,0,0-2.6,1.51,5.43,5.43,0,0,0-1.74,2.5l-.91-.33Zm-60.08-1.2c.25.59.55,1.17.76,1.77A4.29,4.29,0,0,0,30,95.57c.48.12,1.17.27,1.46,0,.48-.39.4-1.14.29-1.76a3.31,3.31,0,0,0-.12-.42,1.55,1.55,0,0,0-1.74-1.28l1.43,2.38-.91.3A6.51,6.51,0,0,0,26.06,90.89Zm56.76.34-.17-.14a10.08,10.08,0,0,0-1.46,1.12c-1.31,1.44-2.89,1.2-4.46.88-.07-.49-.13-.92-.2-1.36l-1.77,1.13,8.51,2.25.2-2.12c-.29.22-.48,0-.72-.17s-.2-.41-.12-.67.13-.61.19-.92ZM32.73,95.12l8.52-2.26-1.8-1.13c-.06.45-.13.88-.19,1.36l0,0-.62.11a3.85,3.85,0,0,1-4-1.16,6.8,6.8,0,0,0-1.33-1l-.13.11c0,.29.09.59.16.87.18.69-.18,1.09-.81.94ZM8.4,49.73a17.15,17.15,0,0,0-2.77,5.83,2.62,2.62,0,0,0,1.64-.88,2.07,2.07,0,0,1,1.13-.85c.7-.1.84-.54,1-1a9.79,9.79,0,0,0,.26-1.31A.68.68,0,0,0,9.51,51c-.36-.44-.73-.86-1.11-1.31Zm99.21,0c-.4.47-.79.92-1.16,1.37a.49.49,0,0,0-.1.3c.16.68.32,1.37.51,2a.56.56,0,0,0,.38.27,2.14,2.14,0,0,1,1.54,1,2.11,2.11,0,0,0,1.58.82,17.8,17.8,0,0,0-2.76-5.82ZM26.1,94.85l.11-.09a6,6,0,0,0-2.08-4.7A.24.24,0,0,0,24,90l-2.7-1.13c0,.21-.12.49,0,.64A13.92,13.92,0,0,0,24.14,93c.58.47,1.11,1,1.66,1.52A3.57,3.57,0,0,1,26.1,94.85ZM52,10V8.29a8,8,0,0,0-2.22-5.84.79.79,0,0,0-.47-.26,10.14,10.14,0,0,0-1.2.23c1.75,2.11,2,4.58,2.07,7.1a9,9,0,0,0-.47-5.26l.71-.47a6.2,6.2,0,0,1,.8,3.64c0,1.25-.17,2.47-.27,3.74L52.11,11c.63-.11.66-.14.66-.81ZM94.62,88.88,92,90a1,1,0,0,0-.26.2,6.66,6.66,0,0,0-1.88,3.43,10.92,10.92,0,0,0-.09,1.15c.6-.47,1-1,1.58-1.41a13.81,13.81,0,0,0,3.25-3.61A.67.67,0,0,0,94.62,88.88ZM65.84,9.58c0-2.58.31-5,2-7.17a3.39,3.39,0,0,1-.57-.13,1.11,1.11,0,0,0-1.4.47A8.62,8.62,0,0,0,64,9c0,.33,0,.66.07,1l-.94.16c.1.26.14.61.25.64a15.39,15.39,0,0,0,1.72.37c-.51-4.45-.38-6.29.5-7.37l.67.45A9.28,9.28,0,0,0,65.84,9.58ZM103.76,33.7a7.13,7.13,0,0,0-2.65-4.49c0,.24,0,.38-.08.56l-1.8-.63c.86,2.44,3.45,5.25,5.28,5.14v-.63ZM44.42,87.62l-.06.15.12.14a5.81,5.81,0,0,1,1.85,3.16.68.68,0,0,0,.25.37,3.82,3.82,0,0,0,4-.45.84.84,0,0,0,.25-.95l-.28.61A30.3,30.3,0,0,1,45,87.88,5.86,5.86,0,0,0,44.42,87.62Zm20.72,2.44a.89.89,0,0,0,.37,1,3.88,3.88,0,0,0,3.8.38,1,1,0,0,0,.35-.45,5.92,5.92,0,0,1,1.74-3l.23-.27-.06-.11a5,5,0,0,0-.49.2c-.79.45-1.56.94-2.37,1.35-1.07.54-2.18,1-3.29,1.52ZM14.87,29.22a7.21,7.21,0,0,0-2.65,4.49l-.76-.07v.67c1.91-.1,4.58-2.85,5.27-5.17L15,29.77Zm29.35,53a16.37,16.37,0,0,0,4.39,2.42l-.31.82a18.22,18.22,0,0,1-5.47-3.16c.8,1,1.59,1.92,2.43,2.83a3.68,3.68,0,0,0,2.82,1.2.94.94,0,0,0,1-.92.84.84,0,0,0-.11-.47,9.8,9.8,0,0,0-2.23-2.48,1.28,1.28,0,0,0-1.52-.4A4.48,4.48,0,0,1,44.22,82.24Zm27.53,0c-.56-.12-1-.23-1.52-.32a.45.45,0,0,0-.32,0,10.92,10.92,0,0,0-2.84,3,.93.93,0,0,0,.88,1.4A5.24,5.24,0,0,0,69.47,86c1.61-.64,2.23-2.28,3.41-3.35-.85.5-1.65,1.09-2.5,1.58s-1.76.88-2.68,1.32l-.32-.89A16.59,16.59,0,0,0,71.75,82.27ZM19.5,89.71c.62,3.48,3.66,5.89,6.23,5.94A11.6,11.6,0,0,0,24,94a12.24,12.24,0,0,1-3.11-3.42A1.56,1.56,0,0,0,19.5,89.71Zm77,0c-1,.21-1,.21-1.45.93A13.7,13.7,0,0,1,91.94,94a17.7,17.7,0,0,0-1.75,1.73,7.43,7.43,0,0,0,6.32-6.08ZM35.91,9.48c-2.61,1.06-5.43,4.56-5.32,6.78A12.48,12.48,0,0,1,37,10.69Zm49.54,6.74a9.36,9.36,0,0,0-5.37-6.76L79,10.66C82.48,12.39,82.94,12.79,85.45,16.22ZM83.9,11.05a20.41,20.41,0,0,1,1.45,2.21,1.58,1.58,0,0,0,1.4,1l2.37.28c-.16-1.1-.16-1.1-1-1.52l-1-.51L83.9,11ZM32,11.13l-.23.08c-1.34.63-2.67,1.3-4,1.88a1.23,1.23,0,0,0-.82,1.39A9.84,9.84,0,0,0,30.1,14a.49.49,0,0,0,.23-.22L32,11.11ZM54.61,69.26h0c-.22,1.62-.46,3.25-.67,4.88a1.35,1.35,0,0,0,.06.69,1.4,1.4,0,0,1-.18,1.48,1.07,1.07,0,0,0-.26.4c-.21,1.34-.4,2.68-.61,4.05L54.1,81c0-1.41.44-2.74.09-4.1a1.63,1.63,0,0,1,.05-.66c.08-.36.15-.72.2-1.09C54.51,73.16,54.55,71.21,54.61,69.26Zm7.64-35.07h0c0-.51-.07-1-.13-1.52a1.67,1.67,0,0,0-.41-1,.63.63,0,0,0-.79-.18c-.16.05-.3.38-.32.59-.07.78-.08,1.56-.14,2.34A1.06,1.06,0,0,0,61,35.53c.13.08.15.34.26.48a.65.65,0,0,0,.32.16c.25-.44.88-.68.72-1.36A2.57,2.57,0,0,1,62.25,34.19Zm-7.63,2a3.67,3.67,0,0,1,.55-.76.87.87,0,0,0,.34-.78c-.06-.91-.11-1.81-.15-2.72,0-.38-.18-.54-.56-.55a.9.9,0,0,0-.88.72c-.09,1-.12,2.1-.15,3.15,0,.27.63.89.85.94ZM63.1,80.77c-.15-1-.3-1.91-.43-2.84a3.8,3.8,0,0,0-.6-1.92,1.06,1.06,0,0,1-.1-.9,2.39,2.39,0,0,0,.09-1.35c-.21-1.47-.41-2.93-.61-4.4h-.14c.15,2.28.3,4.55.46,6.83a1.83,1.83,0,0,1,0,.66,7.92,7.92,0,0,0,0,2.66c0,.47.09.94.13,1.45Zm5.91.65c-1.17-.59-2.35-.14-3.51-.1a5,5,0,0,0,.63,3.18Zm-22,0,2.9,3.12a5.62,5.62,0,0,0,.61-3.22c-1.2,0-2.37-.48-3.52.09Zm59.25-14c.23,1.32.45,2.62.69,3.92.17,1,.34,1.91.55,2.86a4.26,4.26,0,0,0,.36.82,14.24,14.24,0,0,0-.78-7.2c-.14-.4-.35-.56-.83-.41Zm-96.48,0c-.5-.17-.7,0-.84.38A15.7,15.7,0,0,0,8,74.41a4.81,4.81,0,0,0,.07.53h.17c.88-2.43.91-5,1.53-7.57Zm65.94-53c1.93,2.17,4.43,3.8,5.28,6.75a2.42,2.42,0,0,0-.74-2.17,1.6,1.6,0,0,1-.52-1.69.55.55,0,0,0-.19-.62c-.71-.64-1.44-1.27-2.13-1.93A1.57,1.57,0,0,0,75.72,14.34Zm-35.43.12-.09-.23c-.39,0-.88-.07-1.14.12-.94.73-1.82,1.55-2.71,2.35a.54.54,0,0,0-.14.42,2,2,0,0,1-.6,1.82A2.52,2.52,0,0,0,35,21.1a7.83,7.83,0,0,1,1.62-3c.71-.82,1.48-1.59,2.24-2.36C39.32,15.32,39.82,14.9,40.29,14.46Zm36.45,2.28a25.67,25.67,0,0,0-8.12-6.37l-.18.19a1.91,1.91,0,0,0,.31.38l6.44,4.67-.4.7c.46.39,1.14-.06,1.44.44ZM40.8,15.61c2.2-1.59,4.38-3.15,6.54-4.73.1-.07.13-.25.19-.38l-.18-.13a26,26,0,0,0-8.09,6.38h.5c.33-.49,1-.05,1.43-.42v0C41.07,16.09,41,15.9,40.8,15.61Zm20.83-5.07a11.8,11.8,0,0,1,1.63-8.8.68.68,0,0,0-.42.19,10.39,10.39,0,0,0-2.09,8c.11.67.12.67.87.62ZM52.81,1.69l-.11.11a11.49,11.49,0,0,1,1.66,8.77c.4,0,.76.09.86-.47A10.69,10.69,0,0,0,53.2,2,1.66,1.66,0,0,0,52.81,1.69ZM63.27,28.77l.08-.15A14.4,14.4,0,0,0,61.71,28a14.62,14.62,0,0,0-5.43-.33,22,22,0,0,0-3,.68,2.83,2.83,0,0,0-.67.4l.06.12.57-.17a10.61,10.61,0,0,1,3.53-.48c.69,0,1.37,0,2.05,0s1.56,0,2.32.12,1.4.3,2.1.43Zm-.66,61.74H53.4V91h9.21ZM32,72a1.26,1.26,0,0,0,.16,1.64c1.33,1.79,3.36,2.43,5.26,3.29-.23-.21-.51-.37-.76-.57a12.19,12.19,0,0,1-2.15-1.87C33.78,73.47,32.69,72.93,32,72ZM84,72l-1.81,1.58c-.13.12-.32.2-.39.34a6.12,6.12,0,0,1-2.26,2.23c-.33.24-.67.46-1,.69a28.47,28.47,0,0,0,3-1.36,7,7,0,0,0,2.21-1.89c.4-.51.64-1,.21-1.6Zm-8.51,8a11.16,11.16,0,0,1-5,.84V80l-1,.61c1.78,1.3,7.88.71,9.36-1l-3,.86Zm-35.28.48-3-.84,0,.12c2,1.4,7.35,2.28,9.37.82l-1-.59-.07.85a11.28,11.28,0,0,1-5-.84Zm68.37-23.87L105,58.41a4.21,4.21,0,0,0,3.09.67.42.42,0,0,0,.23-.26c.12-.73.22-1.46.33-2.18ZM70.05,3.06l-.45-.18c-.76-.25-.76-.25-1.26.39a8.9,8.9,0,0,0-1.55,5.5A12.14,12.14,0,0,1,70.05,3.06ZM7.4,56.65c.09.65.18,1.34.26,2a.48.48,0,0,0,.5.47h0a5.11,5.11,0,0,0,2.47-.45,3.19,3.19,0,0,0,.38-.26Zm79-26.46h.16a2.7,2.7,0,0,0,.18-.69c0-.62,0-1.24-.09-1.87a8.18,8.18,0,0,0-1.43-4.3c-.16-.22-.34-.42-.55-.68,0,.12,0,.15,0,.18a12.73,12.73,0,0,1,1.2,5.53A3.5,3.5,0,0,0,86.37,30.19ZM49.24,8.65c-.06-.62-.09-1.17-.16-1.72a7.28,7.28,0,0,0-1.71-4,.69.69,0,0,0-.47-.22,5,5,0,0,0-.85.28A30.38,30.38,0,0,1,47.9,5.62c.52.92.87,2,1.34,3ZM29.6,30.25a4.53,4.53,0,0,0,.57-2,12.43,12.43,0,0,1,.76-4.31c.15-.4.32-.79.51-1.24C29.81,24,28.58,29,29.6,30.25ZM65.28,89.69a24.25,24.25,0,0,0,5-2.46.68.68,0,0,0-.88-.23,6.56,6.56,0,0,1-1.07.22,2.15,2.15,0,0,0-.75.12A7.1,7.1,0,0,0,65.28,89.69ZM45.66,87.23a22.91,22.91,0,0,0,5.07,2.42,9.09,9.09,0,0,0-1.17-1.38,2.89,2.89,0,0,0-2.28-1.1,1.44,1.44,0,0,1-.7-.16A.7.7,0,0,0,45.66,87.23ZM106.54,82a30.06,30.06,0,0,0,.12-6.43,14,14,0,0,1-.73,1.38,2,2,0,0,0-.2,2C106.07,79.88,106.27,80.93,106.54,82ZM59.08,22.18c0-.6-.6-1.34-1.08-1.35s-1.1.76-1.1,1.34.6,1.46,1.09,1.46S59.08,22.84,59.08,22.18ZM9.34,82h.11c.27-1,.49-2.1.82-3.13A1.92,1.92,0,0,0,10.08,77a11.15,11.15,0,0,1-.74-1.41ZM58.4,17.25c-.09-1.62.6-3.24-.33-4.87-1,1.62-.4,3.26-.47,4.87ZM40.2,77.87l-.06.09a2.34,2.34,0,0,1,.27.55,1.17,1.17,0,0,0,1,.92c.76.19,1.52.36,2.28.48.51.06,1,.09,1.55.1l0-.19Zm30.5,2,.06.25c1.06-.15,2.13-.28,3.19-.45a2,2,0,0,0,1.87-1.77ZM26.76,15.52c-1.56-.4-5.19,1.6-6,3.15Zm68.47,3.17c-1.3-1.86-4.66-3.65-6.07-3.21ZM93.29,37.44c.14.06.23.12.34.16.83.33,1.08.25,1.48-.54a4.72,4.72,0,0,0,.38-1,1.64,1.64,0,0,0-.91-2.12V37.3l-.86,0V35.63h0c-.13.61-.26,1.19-.39,1.81ZM26.92,35.67c-.32.26-.76.61-1.18,1a.36.36,0,0,0-.1.29,4.89,4.89,0,0,0,1.58,2.43c-.1-1.35-.21-2.62-.3-3.68Zm-4.59.11h-.07v1.47H21.4V33.91a1.8,1.8,0,0,0-.84,2.4,3.91,3.91,0,0,0,.31.76c.42.8.76.91,1.57.51a.48.48,0,0,0,.2-.38c-.07-.49-.2-1-.31-1.41ZM88.78,39.3a4.67,4.67,0,0,0,1.58-2.38.29.29,0,0,0,0-.22l-1.25-1c-.09,1.05-.19,2.32-.29,3.62ZM58,86.43a6.28,6.28,0,0,0-1,.24c-.36.13-.4.4-.19.73a1.48,1.48,0,0,0,2.06.35,1.31,1.31,0,0,0,.36-.38c.19-.3.15-.57-.19-.69A6.9,6.9,0,0,0,58,86.43ZM53.78,38.22c.95-.84,1.22-.78,2.28.48V35.9a1,1,0,0,0-.43.5,1.05,1.05,0,0,1-1.3.69c-.18-.06-.36-.12-.54-.2Zm6.15.38A6,6,0,0,1,61,37.73c.5-.26.85.19,1.2.52V36.88c-1,.47-1.44.31-1.88-.63a2.47,2.47,0,0,0-.4-.45Zm44.71,14.59h-.16l-1.11,1,1.8,2.69.32-.59-.57-.09C104.83,55.2,104.73,54.19,104.64,53.19Zm-93.13,0h-.16c-.1,1-.19,2-.28,3l-.57.12.33.55,1.8-2.68Zm44.63.93H56L55.47,70.4h.12q.27-8.15.55-16.29ZM60,54.2l-.17,0q.28,8.42.58,16.83h.1L60,54.19ZM22.6,72l.41,1.8a1.42,1.42,0,0,0,1.12.75.42.42,0,0,0,.18-.14,1.4,1.4,0,0,0-.22-1.25C23.62,72.75,23.14,72.38,22.6,72Zm80-17.07c-.84.65-.92,1-.45,1.61a1.1,1.1,0,0,0,1.46.08.43.43,0,0,0,0-.38C103.35,55.76,103,55.34,102.63,54.9ZM50.73,2.05a10.19,10.19,0,0,1,2.14,7.67C53.35,6.84,53.25,4.1,50.73,2.05ZM85.19,72.4c.94-.42,1.27-1.09,1.33-2.71-.38.32-.72.6-1,.89a1.25,1.25,0,0,0-.29,1.82ZM13.37,54.94a7.2,7.2,0,0,0-.75.81,4.54,4.54,0,0,0-.35.78,6.5,6.5,0,0,0,1.06.24.8.8,0,0,0,.51-.35C14.29,55.73,14.22,55.51,13.37,54.94Zm16,14.67c.12.61.24,1.08.3,1.56.09.68.58,1,1.13,1.29.18-.54.4-1.06.09-1.47A12.36,12.36,0,0,0,29.41,69.61Zm64,2.36L92,73a1.29,1.29,0,0,0-.36,1.29c0,.07.16.19.18.18.38-.2.92-.33,1.08-.65A8.05,8.05,0,0,0,93.38,72ZM65.21,2.14c-2.13,1.41-2.7,4.64-2.11,7.19A9.92,9.92,0,0,1,65.21,2.14Zm36.38,79.8a9.77,9.77,0,0,1-2,6.57.35.35,0,0,0,.14-.06l.26-.23A6.26,6.26,0,0,0,101.59,81.94Zm.44-24.1-1-1.58-1.65,1.26,0,.13Zm-87-1.6-1,1.6,2.67-.21v-.14ZM16.3,88.4a10.2,10.2,0,0,1-1.94-6.47,16.27,16.27,0,0,0-.14,1.69,4.31,4.31,0,0,0-.08,1A6.22,6.22,0,0,0,16.3,88.4Zm8.56-50.13c0-.3-.14-.57-.54-.56a1.16,1.16,0,0,0-1,1.08c0,.34.15.6.54.6A1.18,1.18,0,0,0,24.86,38.27ZM29.52,11l.08.16,4.49-2,0-.15c-.34,0-.74-.12-1,0C31.86,9.67,30.7,10.37,29.52,11Zm61.86,26.7a1.28,1.28,0,0,0-.34.33,1.06,1.06,0,0,0,.85,1.34.71.71,0,0,0,.51-.31C92.66,38.58,92.09,37.76,91.38,37.74ZM86.29,11.15l.09-.15c-1-.61-2.09-1.2-3.12-1.82a1.52,1.52,0,0,0-1.41,0Zm-29.09,7c.19.59.32,1.06.5,1.52a.47.47,0,0,0,.38.19c.3-.07.68-1.06.57-1.49s-.48-.15-.73-.22A4.33,4.33,0,0,0,57.2,18.15ZM96.8,35.92a1.11,1.11,0,0,0-.31.3,1,1,0,0,0,.69,1.32.85.85,0,0,0,.68-.3C98.13,36.76,97.49,35.89,96.8,35.92Zm-77.24.57c-.06-.4-.14-.76-.51-.65a1.88,1.88,0,0,0-.87.6.66.66,0,0,0,.06.92l0,0a.72.72,0,0,0,1-.25A4.9,4.9,0,0,0,19.56,36.49ZM38.27,8.34a3.76,3.76,0,0,0-1,.38.78.78,0,0,0-.27.66.67.67,0,0,0,.58.32,2.83,2.83,0,0,0,1-.51c.16-.12.2-.4.29-.61Zm39.45,0c-.58.07-.72.19-.56.55a1.56,1.56,0,0,0,1.31.83A.74.74,0,0,0,79,9.35a.69.69,0,0,0-.23-.6,6.28,6.28,0,0,0-1-.42Zm-50,18.05a1.05,1.05,0,0,0,1-.95.51.51,0,0,0-.44-.57h-.14a1.06,1.06,0,0,0-1,.95.53.53,0,0,0,.48.57Zm7.66-8.92c0-.28-.2-.46-.56-.47a1,1,0,0,0-1,.95.53.53,0,0,0,.49.57h.08A1,1,0,0,0,35.36,17.47Zm59,5.8a1,1,0,0,0-1-1,.51.51,0,0,0-.58.43v.08a1,1,0,0,0,1,1c.36,0,.55-.2.57-.48Zm-13.18-6.2a.51.51,0,0,0-.58.42.49.49,0,0,0,0,.12,1,1,0,0,0,.94,1,.51.51,0,0,0,.6-.41.53.53,0,0,0,0-.13,1,1,0,0,0-1-1Zm-59,6.59a1,1,0,0,0,1-.95.5.5,0,0,0-.46-.54.29.29,0,0,0-.13,0,1,1,0,0,0-.95,1,.5.5,0,0,0,.47.54h.06Zm65.66,1.27a.51.51,0,0,0-.57.44v.12a1,1,0,0,0,1,.93.49.49,0,0,0,.56-.44.2.2,0,0,0,0-.11,1,1,0,0,0-1-.92Zm-61.39,58a1.56,1.56,0,0,0-1.12-1.27c-.32,0-.44.11-.43.41A1.49,1.49,0,0,0,26,83.27C26.27,83.31,26.38,83.13,26.4,82.89Zm63.28-.11c0,.39.22.46.53.37a1.49,1.49,0,0,0,1-1.23c0-.31-.14-.43-.44-.39a1.53,1.53,0,0,0-1.09,1.25ZM84.32,24.47a10.73,10.73,0,0,0-1.86-3.42,3.07,3.07,0,0,0-.59-.43c.06.36,0,.62.14.78C82.81,22.5,83.65,23.57,84.32,24.47ZM81.07,79.52a1.19,1.19,0,0,0-1.23,1,.44.44,0,0,0,.4.47h.11c.47,0,1.09-.55,1-1C81.35,79.79,81.14,79.62,81.07,79.52Zm-46,0a.44.44,0,0,0-.5.37.34.34,0,0,0,0,.22,1.42,1.42,0,0,0,.94.86.47.47,0,0,0,.58-.34.5.5,0,0,0,0-.21,1.15,1.15,0,0,0-1-.9ZM28,36.86a10.34,10.34,0,0,0,.41-4.17A8.34,8.34,0,0,0,28,36.86Zm6.19-16-.25-.13a9.08,9.08,0,0,0-2.19,3.8,3,3,0,0,0,.3-.4c.6-.85,1.22-1.68,1.81-2.54A4.8,4.8,0,0,0,34.14,20.83ZM87.63,32.69A10.35,10.35,0,0,0,88,36.9,8.49,8.49,0,0,0,87.63,32.69Zm12.9,41.2c-.4.62-.78,1.14-1.07,1.69-.09.17,0,.47.08.7a1.4,1.4,0,0,0,.56-.12,1.08,1.08,0,0,0,.34-.57c.07-.52.06-1,.09-1.7Zm-85,.12-.07,0a12.08,12.08,0,0,0,.12,1.71c0,.22.37.39.59.54a.34.34,0,0,0,.32-.06,1,1,0,0,0,.07-.63c-.31-.55-.68-1.06-1-1.59ZM107.4,56c.29-.06.63-.14.66-.56a.91.91,0,0,0-.89-.84c-.46,0-.41.44-.45.72a.64.64,0,0,0,.58.67h.1ZM9.25,55.31c0-.47-.16-.7-.45-.7s-.93.49-.88.85a.66.66,0,0,0,.73.54A.6.6,0,0,0,9.25,55.31ZM55.4,29.55l-.1-.1c-.4.05-.81.15-1.21.16C53,29.66,53,29.7,53,30.8A2.08,2.08,0,0,0,53,31l.12.06c.11-.18.29-.34.32-.53a.76.76,0,0,1,.76-.71c.28,0,.57,0,.85-.08C55.2,29.75,55.3,29.63,55.4,29.55Zm5.27-.07-.09.07a1.21,1.21,0,0,0,.32.22,1.93,1.93,0,0,0,.48,0c.78.05.91.16,1.18.91a1.33,1.33,0,0,0,.29.38L63,31v-.8c0-.41-.21-.61-.67-.6s-1.1-.09-1.65-.13Zm40.63,5.09c0,.56.35,1,.66,1s.52-.09.5-.44-.4-.89-.76-.84C101.53,34.31,101.38,34.51,101.3,34.57Zm-4.62,52.8-.93.69s-.11.06-.11.09c0,.22,0,.45-.06.68a1.2,1.2,0,0,0,.5,0C96.73,88.54,96.77,88.43,96.68,87.37ZM102,27.26c0-.57-.45-1.16-.81-1.1a.57.57,0,0,0-.34.4c0,.42.42,1,.78.93.16,0,.29-.18.37-.23Zm-86.75-.87c-.07-.07-.18-.27-.33-.31-.34-.07-.8.45-.84.89,0,.25,0,.45.33.47S15.2,26.94,15.25,26.39Zm4.08,61c-.1,1-.06,1.16.57,1.43a1.25,1.25,0,0,0,.51,0c0-.23,0-.55-.1-.69A6,6,0,0,0,19.33,87.38ZM54,86.86a1.34,1.34,0,0,0,1.76-.27c-.36-.19-.7-.53-1-.49S54.23,86.57,54,86.86Zm6.27-.24c.72.55,1.27.6,1.78.21-.26-.25-.51-.69-.79-.73s-.64.31-1,.52ZM14.77,34.49c-.2-.16-.41-.41-.48-.38a2,2,0,0,0-.74.57.68.68,0,0,0,.09.63c.07.09.44,0,.58-.05A3.85,3.85,0,0,0,14.77,34.49ZM59.55,19,59,20.33l.4.3,1.07-1.43Zm-4,.16c.38.51.72,1,1.09,1.45l.37-.33-.55-1.27Zm15-6c1.14,1.14,2.14,2.46,3.76,3Zm-28.8,3a8.46,8.46,0,0,0,3.45-2.73ZM25,80.84l-1.41-2.28c-.05,1,.65,1.63.86,2.46Zm81.39-47.6c-.21-.32-.36-.59-.54-.83,0,0-.28,0-.29,0-.05.28-.08.57-.11.85v.05l.48.47ZM26.08,13.39a2.56,2.56,0,0,0-.76.34,1,1,0,0,0-.2,1C25.79,14.62,26.07,14.25,26.08,13.39Zm64.74,1.4c.25-.82-.16-1.38-.88-1.27A1.1,1.1,0,0,0,90.82,14.79Zm-81,18.48c.07.09.17.38.33.41.31.06.4-.22.42-.5,0-.08,0-.16,0-.24,0-.25.18-.62-.21-.65-.16,0-.36.34-.53.55S9.87,33,9.84,33.27ZM91.62,80.92c.11-.79.89-1.32.76-2.3-.47.76-.88,1.44-1.3,2.13Zm-81-28.72h-.17c-.17.94-.8,1.83-.25,2.77.13-.72.28-1.5.41-2.28A2.68,2.68,0,0,0,10.62,52.2Zm94.82,0c-.06,1,.33,1.91.31,2.88.35-1.12.35-1.12-.31-2.88Zm-44,36.44L59.88,88l-.69.63Zm-4.6,0L56.1,88l-1.54.63Zm-49.14-40-.19,0-1,2.05.11.06c.37-.56.75-1.11,1.1-1.68C7.75,49,7.67,48.82,7.66,48.68Zm100.82-.1c-.27.39.25,1.42,1.07,2.2C109.22,50.07,108.86,49.37,108.48,48.58ZM25.63,39l-.46.74,1.31.23Zm54.13,66.7,0-.11L78.72,105c-.07.22-.12.4-.21.67ZM37.25,105l-1.06.57,0,.15,1.29-.06C37.39,105.42,37.32,105.24,37.25,105ZM18,23.66c-.63-.09-1.15.4-1.32,1.17Zm81.27,1.11.08-.06c-.16-.24-.32-.5-.46-.76a.53.53,0,0,0-.83-.27ZM56.94,1.64l.81,1.91c0-1-.43-1.86-.83-1.91ZM90.26,39.15,89.5,40l1.19-.22ZM67.38,11l.11,0L68.1,8l-.14,0Zm-18.92-.35.14,0L48.07,8,48,8c.15.89.32,1.77.49,2.65ZM60.69,77.1c.48-.7-.09-1.35,0-2.07ZM59.75,30l-.09,0c.08.34.16.67.22,1l.44-.37Zm-4.07.65.47.41c.08-.41.14-.74.22-1.16ZM20.1,37.51l-.4.48,1,.38ZM93.39,39l.84-.28v-.08l-.82-.19ZM55.32,77.1V75.8C55.16,76.23,54.92,76.66,55.32,77.1Zm40-38.72.89-.35-.37-.39ZM55.45,72.92l0,0V71h0Z"/><path class="cls-1" d="M29,40.62l-.51,0,.09-.09-.28-.42a1,1,0,0,1-.12-.29,2.23,2.23,0,0,1,.28-1.88,5.71,5.71,0,0,0,.76-3.18c.05-1.19,0-2.39,0-3.59.9-.08,1.18-.31,1.45-1.24a23.68,23.68,0,0,1,2.42-6c.31-.5.69-1,1.1-1.56.11.36.19.59.29.91.48-.58.92-1.13,1.39-1.65C37,20.4,38.05,19.21,39.14,18a2.11,2.11,0,0,1,1.49-.65A5.68,5.68,0,0,0,44,15.91c.53-.45,1-.94,1.55-1.43a5.65,5.65,0,0,1,3.08-1.79c1.52-.26,3-.76,4.49-1s3.25-.3,4.87-.44a.33.33,0,0,1,.19,0c-.61,0-.81.51-1,.93a4,4,0,0,0-.46,1.44c-.07,1,0,2,0,3a1.54,1.54,0,0,1-1.32,1.68,9.9,9.9,0,0,0-4.24,1.77,7.7,7.7,0,0,0-1.18,1.24,3.39,3.39,0,0,0-.41,3.13,10.33,10.33,0,0,0,1.91,3.62,1.34,1.34,0,0,1,.28,1,6.5,6.5,0,0,0,.54,3.19,9.24,9.24,0,0,1,.61,3.64c0,5-.13,10-.49,15A149.77,149.77,0,0,1,50.43,67a89.77,89.77,0,0,1-3.08,12.42c-.06.16-.12.32-.2.5-2.72-1.71-5.81-2.47-8.73-3.63a11.87,11.87,0,0,1-2.8-1.86L37,73.91a2,2,0,0,0-.19-.22,16.14,16.14,0,0,1-3.27-4c-1.06-1.63-2.11-3.28-3.32-4.81-.68-.87-1.39-1.56-1.35-2.81a13.1,13.1,0,0,0-.32-2.36,18.53,18.53,0,0,1,.23-4.28,9.08,9.08,0,0,0,0-1.38c-.12-1.75-.26-3.5-.38-5.26a6.7,6.7,0,0,0-.1-1.09,8.67,8.67,0,0,1,.32-4.49C28.77,42.39,28.87,41.52,29,40.62Z"/><path class="cls-1" d="M79,73.91l1.33.51-.55.48a12.91,12.91,0,0,1-3.93,2c-2,.73-4,1.56-6,2.37a9.2,9.2,0,0,0-1.1.63c-.34-1.09-.69-2.13-1-3.18a108.27,108.27,0,0,1-3.1-15.11,182.66,182.66,0,0,1-1.58-24.4c0-1,0-2.08,0-3.12a2.06,2.06,0,0,1,.17-.69,12.42,12.42,0,0,0,.94-3.6.93.93,0,0,0,0-.29A2.32,2.32,0,0,1,65,27.48a8.45,8.45,0,0,0,1.63-3.65A3.36,3.36,0,0,0,65.81,21a8.63,8.63,0,0,0-4.54-2.54l-.56-.12a1.52,1.52,0,0,1-1.39-1.88c0-.43.09-.86.1-1.29a4.64,4.64,0,0,0-1.12-3.93c.76,0,1.45.06,2.14.12a55.4,55.4,0,0,1,6.4,1.17,7.65,7.65,0,0,1,4.08,2.41,7.36,7.36,0,0,0,3.55,2.28,2.76,2.76,0,0,0,.8.15,2.09,2.09,0,0,1,1.69.76c1,1.11,2,2.25,3,3.39.48.54.94,1.11,1.46,1.73.1-.32.16-.54.25-.85.16.18.28.3.38.43a16,16,0,0,1,2.43,4.71c.26.76.5,1.55.73,2.33s.57,1.33,1.47,1.23c0,1.28,0,2.53,0,3.77a5.77,5.77,0,0,0,1.08,3.55.44.44,0,0,1,.07.35c-.14.48.14,1.09-.45,1.43,0,0,0,.23,0,.39-.45-.13-.47.17-.42.45.17,1,.35,2,.58,3a8.69,8.69,0,0,1,.18,3.37c-.21,1.55-.2,3.12-.3,4.69a11.57,11.57,0,0,1-.2,1.66,11.61,11.61,0,0,0,.21,3.72,14.46,14.46,0,0,1,0,1.61c0,.12-.08.25,0,.37.3,1.36-.58,2.6-.4,4a.41.41,0,0,1-.15.32,23.66,23.66,0,0,0-3.8,4.93c-.89,1.38-1.86,2.71-2.84,4A7.56,7.56,0,0,1,79,73.91Z"/><path class="cls-1" d="M58.27,92.5a76.86,76.86,0,0,1,24.31,3.73c.76.25,1,.54,1,1.35a2.73,2.73,0,0,1-.21,1Q82.18,101.29,81,104c-.25.6-.37.66-.93.35-4.41-2.45-9.27-3.21-14.18-3.73a71.59,71.59,0,0,0-10.35-.37,61.75,61.75,0,0,0-14.5,2,20.66,20.66,0,0,0-4.77,2l-.17.08c-.69.34-.78.32-1.08-.37-.77-1.77-1.55-3.55-2.3-5.32a3.21,3.21,0,0,1-.22-1c0-.87.15-1.12,1-1.38a79.08,79.08,0,0,1,13.92-3.1A81,81,0,0,1,58.27,92.5ZM39.73,96.26l1,4.48.56-.15c-.3-1.27-.58-2.51-.88-3.82.91,1,1.79,1.93,2.62,2.9a.81.81,0,0,0,1.18.21l-.51-2.23-.52-2.25-.56.13c.29,1.27.57,2.49.88,3.81-.92-1-1.79-1.92-2.6-2.88a.81.81,0,0,0-1.2-.19Zm31.45,2a2.09,2.09,0,0,0,1.63,2.1,1.94,1.94,0,0,0,2.39-1.16A4.71,4.71,0,0,0,75.53,98a2.07,2.07,0,0,0-4-1.16,10.9,10.9,0,0,0-.4,1.38ZM57.52,94c0,1.16-.06,2.3,0,3.42A1.39,1.39,0,0,0,59,98.73c1,0,1.66-.31,1.78-1.16.15-1.16.13-2.35.18-3.53h-.65v1.9a10.38,10.38,0,0,1,0,1.25,1.1,1.1,0,0,1-2.19,0c0-.3,0-.6,0-.91V94Zm8.59.35c-.2,1.59-.38,3.09-.56,4.62l2.53.31,0-.51-1.9-.25c.07-.57.14-1.08.21-1.61l1.74.18c0-.18,0-.32.06-.47L66.5,96.4c.06-.51.12-1,.18-1.46l2,.21c-.14-.25-.2-.48-.3-.5-.73-.1-1.47-.18-2.26-.27ZM45.23,99c-.13.4.07.58.51.56a6.86,6.86,0,0,0,.9-.09,1.35,1.35,0,0,0,1.13-1.15A1.19,1.19,0,0,0,47,97a12.47,12.47,0,0,1-1.17-.55.84.84,0,0,1-.34-.6.74.74,0,0,1,.45-.48,7.23,7.23,0,0,1,1.23-.13v-.51a9.71,9.71,0,0,0-1.21.1,1.25,1.25,0,0,0-1.13,1,1.3,1.3,0,0,0,.9,1.33c.33.15.67.29,1,.47s.58.43.41.77a1.22,1.22,0,0,1-.69.55,4.88,4.88,0,0,1-1.16,0Zm34.3-1.65-2.28-.73-1.43,4.43.6.18.67-2,1.59.49.16-.46-1.59-.54c.16-.49.3-.94.46-1.42l1.67.5ZM54.85,94.52v4.09h.65V94.47h1.24V94H53.49c0,.2,0,.34,0,.5Zm-6.92.56L49.22,95c.15,1.4.29,2.72.44,4.08l.62-.06c-.14-1.39-.27-2.73-.41-4.09l1.29-.17c0-.19,0-.33-.07-.51l-3.2.33Zm15.64,3.75c.08-1.41.15-2.76.23-4.13l1.29.07c0-.19,0-.34,0-.53l-3.23-.15v.49l1.27.12c-.07,1.4-.13,2.73-.2,4.1Zm-11-4.71-.63.06c.11,1.58.22,3.1.33,4.65l.62-.07c-.1-1.55-.21-3.06-.32-4.64Zm-13,7-1.37-4.45-.6.18L39,101.31Z"/><path class="cls-1" d="M25,53.43l.46-.63c-.61-.38-1.18-.8-1.8-1.12-2.38-1.23-4.79-2.42-7.17-3.66A18.07,18.07,0,0,1,11,44.13c-.19-.22-.37-.45-.54-.67a2.92,2.92,0,0,1-.62-3c.48-1.37.71-2.82,1.06-4.23.09-.28.19-.56.31-.84l3.13,1.34a.72.72,0,0,1,.25.21,14.76,14.76,0,0,0,4.84,4.16c1.48.85,3.05,1.57,4.57,2.34l.21.07.33-.78a27.16,27.16,0,0,1-8.11-5c3.74,1.53,7.47,3.09,11.64,3.38-.37,1.84-.73,3.63-1.1,5.52-6.28-.1-11.46-2.52-15.17-7.92l-.74.47c.37.5.7,1,1.08,1.48A18,18,0,0,0,24.1,47.25c.94.11,1.88.17,2.82.19.34,0,.45.13.47.44.05,1.27.1,2.56.19,3.83.05.81.25,1.62.25,2.43,0,1-.11,1.94-.19,2.91,0,.33-.1.66-.16,1.05a16.8,16.8,0,0,1-10-7.13,3.36,3.36,0,0,0-.39.23l-.42.28c.69.86,1.33,1.73,2.06,2.52A18.13,18.13,0,0,0,27,58.87a1,1,0,0,1,.77,1.25.9.9,0,0,1-.08.21.3.3,0,0,1-.25.17,12.82,12.82,0,0,1-7.77-1.75,2.42,2.42,0,0,1-1-1.23A16.4,16.4,0,0,0,14,51.2c-1-.9-2-1.77-3-2.69A7.16,7.16,0,0,1,8.9,45.72,3.63,3.63,0,0,1,9,42.85l.48.76a13,13,0,0,0,4.68,4.12c1.84,1,3.68,1.94,5.52,2.89Z"/><path class="cls-1" d="M99.29,51.46,98.51,51a16.89,16.89,0,0,1-10,7.15c-.12-.82-.21-1.63-.37-2.42a10.64,10.64,0,0,1,.19-2.76c.09-1.42.14-2.84.2-4.26,0-1.2,0-1.17,1.24-1.23a18.25,18.25,0,0,0,14.73-7.73c.13-.18.25-.37.39-.59l-.73-.46C100.5,44,95.3,46.47,89,46.58c-.37-1.87-.73-3.67-1.09-5.52,4.16-.31,7.9-1.84,11.63-3.38a16.16,16.16,0,0,1-3.81,2.87c-1.4.77-2.83,1.48-4.28,2.24l.29.68c.06,0,.1,0,.12,0a28.73,28.73,0,0,0,7.9-4.74,22.49,22.49,0,0,0,1.54-1.7,1.18,1.18,0,0,1,.32-.31l3.22-1.37c.28,1.09.55,2.12.81,3.15s.47,1.86.67,2.79a1.49,1.49,0,0,1,0,.81,9.24,9.24,0,0,1-3,3.59A35.17,35.17,0,0,1,97.6,49c-2.13,1.1-4.24,2.23-6.35,3.35-.25.15-.48.31-.71.47l.51.72a14,14,0,0,1,1.23-.78c2.14-1.11,4.31-2.17,6.43-3.32,1.72-.94,3.42-1.93,5.07-3a9.32,9.32,0,0,0,3-3.25,2.56,2.56,0,0,1,.2-.26,3,3,0,0,1,.29.75,4.12,4.12,0,0,1-.37,2.6,13.37,13.37,0,0,1-2.55,2.91c-1.4,1.31-2.85,2.58-4.19,4a13.48,13.48,0,0,0-2.92,4.75,1.43,1.43,0,0,1-.44.59,9.89,9.89,0,0,1-5.23,2c-.92.09-1.86.07-2.79.12-.31,0-.44-.11-.43-.41v-.58a.54.54,0,0,1,.48-.59,18,18,0,0,0,8.94-5.5C98.28,52.82,98.75,52.16,99.29,51.46Z"/><path class="cls-1" d="M80.58,106.77a20.63,20.63,0,0,0,1.5-2.34c.76-1.58,1.43-3.2,2.1-4.83a.55.55,0,0,1,.68-.4,19.91,19.91,0,0,1,4.88,1.2c2.87,1,5.72,2.12,8.61,3a30.12,30.12,0,0,0,11.44,1.22c.56,0,1.11-.12,1.79-.19l-.43.38a6.9,6.9,0,0,0-2,2.37,3.45,3.45,0,0,0,1.24,4.44l.59.43-2.62.27a36.64,36.64,0,0,1-17.2-2.55,43.45,43.45,0,0,0-7.85-2.58C82.37,107.05,81.43,106.91,80.58,106.77Zm20.15-.76-1.21,3.74c-.25-1.31-.55-2.55-.74-3.81-.09-.58-.39-.76-.92-.81-.47,1.46-.94,2.91-1.42,4.38l.55.19L98.2,106c.25,1.3.55,2.56.76,3.84a.81.81,0,0,0,.9.79l1.42-4.37Zm7,.84.1-.13c-.09-.1-.19-.31-.27-.3-.77,0-1.53.1-2.32.17.14,1.57.27,3.08.4,4.64l2.55-.24c0-.18,0-.33,0-.5l-1.92.14c0-.56-.08-1.07-.13-1.61l1.76-.18c0-.19,0-.32-.07-.48l-1.74.13c0-.51-.08-1-.12-1.48Zm-14.55,1.29,2.37,1,.19-.47L94,107.92l.64-1.49,1.63.67.19-.45-1.63-.72c.19-.47.38-.91.58-1.37l1.72.72.18-.45-2.3-1Zm-5.71-7c-.39-.11-.76-.25-1.14-.32a1.18,1.18,0,0,0-1.09,2.06c.25.26.53.51.78.78s.43.6.2,1a.81.81,0,0,1-1,.26,8.35,8.35,0,0,1-1-.42l-.17.58c.45.14.86.3,1.29.39a1.35,1.35,0,0,0,1.48-.63,1.2,1.2,0,0,0-.29-1.56c-.32-.29-.62-.59-.91-.91a.83.83,0,0,1-.13-.68.7.7,0,0,1,.58-.3,8.46,8.46,0,0,1,1.23.29,1.42,1.42,0,0,0,.08-.18A1.3,1.3,0,0,0,87.44,101.11Zm16.91,9.43c-1,.1-2,.1-2.49-1a1.88,1.88,0,0,1,.33-2.11c.76-.82,1.66-.58,2.59-.22,0-.17.07-.32.12-.57a10.48,10.48,0,0,0-1.38-.25,2.23,2.23,0,0,0-2.47,2.07,2.16,2.16,0,0,0,1.89,2.54,7.45,7.45,0,0,0,1,.08c.39,0,.52-.15.46-.57ZM92.4,103a3,3,0,0,0-2.59-.73,2.32,2.32,0,0,0-1.72,2,2,2,0,0,0,1.09,2.21,6,6,0,0,0,1.11.44c.46.14.5.09.59-.43-1-.15-1.9-.41-2.12-1.53a1.88,1.88,0,0,1,.83-2c1-.61,1.79-.17,2.6.45ZM92,107.68l2-4.22-.57-.27-2,4.21Z"/><path class="cls-1" d="M35.42,106.81a36.84,36.84,0,0,0-10.22,2.85,40.3,40.3,0,0,1-8.69,2.47,39,39,0,0,1-7.86.29c-1,0-1.94-.16-2.91-.25-.22,0-.43-.06-.72-.1.3-.23.55-.4.78-.59a3.33,3.33,0,0,0,.82-4.59,15.1,15.1,0,0,0-1.74-2,4.42,4.42,0,0,0-.47-.39l2.33.18A31.29,31.29,0,0,0,19.11,103c2.57-.86,5.1-1.85,7.66-2.77a17.6,17.6,0,0,1,4.37-1,.54.54,0,0,1,.65.38c.67,1.61,1.33,3.22,2.09,4.79A25.25,25.25,0,0,0,35.42,106.81ZM15.55,111c-.16-1.52-.33-3-.49-4.59l-.57.09c.13,1.29.25,2.52.4,3.88l-2.26-3.21c-.38-.54-.45-.56-1.12-.28l.48,4.53.57-.06-.42-3.9c.79,1.11,1.58,2.16,2.28,3.25A.81.81,0,0,0,15.55,111Zm11.82-4.44-1.15-3.76c1,.94,1.94,1.8,2.83,2.71a.82.82,0,0,0,1.18.13c-.45-1.48-.9-2.93-1.35-4.42l-.55.19,1.14,3.74c-1-.92-1.91-1.77-2.79-2.7a.83.83,0,0,0-1.21-.13c.45,1.47.89,2.93,1.35,4.4Zm-10.71,4.16c.5-.17.94-.29,1.38-.46,2.07-.79,1.87-2.61,1-3.81a1.54,1.54,0,0,0-1.36-.68c-.8.07-1.59.25-2.42.4Zm5.57-2c.51,0,.61-.25.56-.68-.09-.79-.06-.79.66-1.11l.62-.28c.73-.32.76-.34,1.27.24.33.37.6.35.87.11l-3.1-3.22c-.19-.2-.34-.36-.68-.2a.56.56,0,0,0-.38.67c0,.41,0,.83,0,1.24.05,1.07.1,2.13.14,3.24Zm-12.06,2.64h.65c0-1.53.1-3.06.15-4.61h-.63C10.28,108.26,10.23,109.78,10.17,111.34ZM21.65,109l-1.75-4.32-.58.26c.59,1.44,1.16,2.86,1.74,4.31Z"/><path class="cls-1" d="M60.85,85.2,59.64,86a3.7,3.7,0,0,0-3.28,0l-1.31-.81a33.6,33.6,0,0,0,1.21-9.36q.35-8.57.66-17.13c0-.91,0-1.82,0-2.73q0-10.86.05-21.7c0-1,0-1.95,0-2.92A3.33,3.33,0,0,1,58,29.09a3.89,3.89,0,0,1,1.08,3c0,.62-.06,1.25-.06,1.87,0,8.18,0,16.36.11,24.53.08,5.49.38,11,.61,16.45.1,2.18.22,4.35.43,6.51C60.27,82.7,60.6,83.92,60.85,85.2Z"/><path class="cls-1" d="M63.63,27.76a14.5,14.5,0,0,0-11.31,0c-1-1.43-2.08-2.86-2.09-4.76a1.57,1.57,0,0,1,1-1.57c1.13-.48,2.27-.94,3.4-1.41a.43.43,0,0,1,.59.18v0c.16.26.34.47.51.7A1.28,1.28,0,0,1,56,22a2,2,0,0,0,.13.94c.33,1,1.33,1.7,2.06,1.53A2.44,2.44,0,0,0,60,22,3.37,3.37,0,0,1,61,20a.58.58,0,0,1,.32,0,11.55,11.55,0,0,1,3.76,1.63c.35.21.52.81.64,1.27a2.44,2.44,0,0,1-.07,1A9,9,0,0,1,63.63,27.76Z"/><path class="cls-1" d="M54.69,38.49a2.54,2.54,0,0,1,.82,1.94c0,2.78,0,5.57-.15,8.35-.15,3.43-.35,6.87-.64,10.29s-.7,6.87-1.09,10.3c-.2,1.72-.47,3.42-.69,5.14a.87.87,0,0,0,.11.57.54.54,0,0,1,0,.76,2.14,2.14,0,0,0-.37.83c-.23,1.29-.41,2.59-.62,4l-1.59-.21c.27-1.34.52-2.62.79-3.9,0-.12.14-.21.18-.33a2.7,2.7,0,0,0,.33-1.12,13,13,0,0,1,.37-3.36c.51-3.84,1.07-7.67,1.47-11.51.67-6.31.73-12.65.89-19,0-.7,0-1.41.07-2.11A4.21,4.21,0,0,1,54.69,38.49Z"/><path class="cls-1" d="M65.56,80.41,64,80.64c-.14-.85-.27-1.68-.4-2.51-.08-.53-.12-1-.23-1.57a2,2,0,0,0-.35-.69c-.21-.28-.3-.51,0-.81a.78.78,0,0,0,.09-.52c-.56-4.82-1.19-9.62-1.68-14.45a189.59,189.59,0,0,1-.91-19.51,3,3,0,0,1,.83-2.13,3.31,3.31,0,0,1,.17.69c.11,3.46.19,6.91.3,10.37.13,4.54.37,9.08,1,13.59.46,3.61,1,7.21,1.57,10.82a1.46,1.46,0,0,1,0,.42,2.53,2.53,0,0,0,.35,2,3.55,3.55,0,0,1,.3,1.14Z"/><path class="cls-1" d="M19.09,78.14a10.71,10.71,0,0,0,3.55,1.63c.18,0,.34.27.44.45a11,11,0,0,1,1.27,4.24,20.42,20.42,0,0,1-.09,4.69,10.82,10.82,0,0,1-1.56-.68c-1-.63-2-1.31-3-2a1.62,1.62,0,0,1-.37-.63c-.43-.94-.78-1.93-1.26-2.83a21,21,0,0,1-2-4.11c-.17-.57-.29-1.16-.46-1.84.78.27,1.4.26,1.82-.43a1.7,1.7,0,0,1,.82,1.33,12.11,12.11,0,0,0,2.36,5.39c.88,1.27,1.72,2.53,2.57,3.82q.22.41.42.84l.86-.34c-.41-.73-.76-1.45-1.19-2.1-.76-1.16-1.61-2.28-2.39-3.42A10.42,10.42,0,0,1,19.09,78.14Z"/><path class="cls-1" d="M91.73,89.12a15.28,15.28,0,0,1,1.09-8.77,1.32,1.32,0,0,1,.84-.69c1.09-.39,2.14-.87,3.2-1.31a7.22,7.22,0,0,1-1,2.59c-.57,1-1.23,1.87-1.83,2.81-.74,1.14-1.46,2.28-2.18,3.44a3.48,3.48,0,0,0-.21.48l.78.32c.22-.46.47-.92.73-1.36.75-1.11,1.52-2.21,2.28-3.31A11.86,11.86,0,0,0,97.82,78a1.85,1.85,0,0,1,.79-1.39c.69.65.79.67,1.77.46a5.48,5.48,0,0,1-.06.61,14.46,14.46,0,0,1-1.8,4.36,31.09,31.09,0,0,0-1.72,3.41,3,3,0,0,1-.93,1.37A13.18,13.18,0,0,1,91.73,89.12Z"/><path class="cls-1" d="M101.64,68c-.78,3.45-2,6.65-4.78,9a8.38,8.38,0,0,1-3.55,1.8c.2-4.33,1-8.43,3.41-12.07l1.88.8a7.61,7.61,0,0,1-.82,2.8c-.7,1.31-1.48,2.57-2.25,3.84-.53.88-1.1,1.73-1.64,2.6-.15.24-.25.5-.4.8l.79.36c1.34-2.73,3.55-4.95,4.58-7.85.27-.75.46-1.52.69-2.3Z"/><path class="cls-1" d="M17.36,67.57l1.9-.81c2.46,3.63,3.2,7.75,3.43,12.07a7.83,7.83,0,0,1-2.59-1.1,11.1,11.1,0,0,1-3.59-3.87A20.19,20.19,0,0,1,14.35,68l2.06-.19c.29.9.51,1.83.88,2.68a31.77,31.77,0,0,0,1.78,3.23c.86,1.39,1.77,2.75,2.72,4.19l.76-.33c-.41-.7-.76-1.37-1.17-2-.95-1.52-1.95-3-2.86-4.54A9.83,9.83,0,0,1,17.36,67.57Z"/><path class="cls-1" d="M93.9,65.4l2.06.88C94.78,68,94.2,70,92.6,71.43a12,12,0,0,1-5.27,2.71.74.74,0,0,1-.21,0,21.29,21.29,0,0,1,0-2.65,13.2,13.2,0,0,1,3.21-6.7.42.42,0,0,1,.36-.16c.73.13,1.46.3,2.34.48q-.52.77-1.11,1.47c-.75.79-1.56,1.52-2.32,2.31A6,6,0,0,0,87.8,72.5l.87.11A6.39,6.39,0,0,1,91,68.77c.58-.56,1.18-1.1,1.7-1.69S93.46,66,93.9,65.4Z"/><path class="cls-1" d="M20.08,66.26l2.09-.88a11,11,0,0,0,2.76,3.33,12.65,12.65,0,0,1,1.62,1.88,12.43,12.43,0,0,1,.9,2l.73-.1a4.64,4.64,0,0,0-1-2.61c-.69-.84-1.47-1.59-2.21-2.39-.51-.56-1-1.13-1.54-1.7a4.86,4.86,0,0,1-.4-.7c.8-.17,1.52-.34,2.26-.47a.47.47,0,0,1,.39.2,13,13,0,0,1,3.18,6.7,23.9,23.9,0,0,1,0,2.69c-.63-.19-1.21-.34-1.78-.54a10.33,10.33,0,0,1-5-3.69,10.17,10.17,0,0,1-.7-1.2C21,68,20.56,67.15,20.08,66.26Z"/><path class="cls-1" d="M28.13,63.35a22.68,22.68,0,0,0-7.19,1.56,11,11,0,0,0-1.43.68,9.81,9.81,0,0,1-7.66,1.15,19.86,19.86,0,0,0-2.78-.3c-.36,0-.59-.36-.61-1,.54.11,1.06.23,1.58.32a11.11,11.11,0,0,0,7.8-1.43c1.18-.69,2.36-1.39,3.58-2a7.66,7.66,0,0,1,4.35-.92,14.77,14.77,0,0,0,1.63,0c.27,0,.43.08.48.33C28,62.26,28,62.79,28.13,63.35Z"/><path class="cls-1" d="M107.54,65.43c0,.76-.25.95-.9,1a17.47,17.47,0,0,0-2.89.39,9.35,9.35,0,0,1-6.9-1,19.29,19.29,0,0,0-7.66-2.29L88,63.35c0-.28,0-.55,0-.82.06-1,.16-1.13,1.16-1.11a24.33,24.33,0,0,1,3.2.11,12.52,12.52,0,0,1,4.56,2,16.08,16.08,0,0,0,4.51,2.09,11.74,11.74,0,0,0,5.65-.13Z"/><path class="cls-1" d="M24.78,75.39c1.49,2.68,4.06,4.27,6.66,5.85.91.56,1.79,1.17,2.67,1.78a14.56,14.56,0,0,1,1.15,1c-.56.11-1,.22-1.44.28a7.64,7.64,0,0,1-6.42-2.13,16.75,16.75,0,0,1-4-6.34,1.21,1.21,0,0,1-.05-.18c0-.13,0-.26-.05-.37Z"/><path class="cls-1" d="M80.8,83.88c.87-.64,1.71-1.32,2.61-1.92,1.19-.8,2.45-1.51,3.64-2.3a12.82,12.82,0,0,0,4.16-4.26l1.5-.08a2.1,2.1,0,0,1-.09.5,15.92,15.92,0,0,1-4.47,6.76,7.61,7.61,0,0,1-7,1.57l-.25-.1Z"/><path class="cls-1" d="M81.79,19.47A1.57,1.57,0,0,0,83,18.21c3.6,1,6.55,2.76,8.1,6.36l.8-.34a9.19,9.19,0,0,0-2.44-3.58A24.64,24.64,0,0,0,87,18.83c-.3-.2-.48-.37-.44-.75a9,9,0,0,0,0-1c.64.45,1.22.78,1.75,1.21A11.27,11.27,0,0,1,92,23.31c.18.51.38,1,.52,1.49.21.76-.17,1.21-.94,1.12a2.31,2.31,0,0,1-1-.35c-2.78-1.91-5.53-3.84-8.3-5.77Z"/><path class="cls-1" d="M32.94,18.22a1.57,1.57,0,0,0,1.33,1.2l-.41.3c-2.82,2-5.64,3.93-8.47,5.86a2.59,2.59,0,0,1-1.21.34.66.66,0,0,1-.74-.7,1.24,1.24,0,0,1,0-.43,12.13,12.13,0,0,1,5.73-7.55l.17-.08h.07a10.77,10.77,0,0,1,0,1.27c0,.15-.26.3-.42.39a11,11,0,0,0-4.59,4.63c-.12.24-.23.49-.36.78l.81.35C26.4,21,29.33,19.24,32.94,18.22Z"/><path class="cls-1" d="M98.74,34.51l.72-.13a7.93,7.93,0,0,0-1.35-3.29c-.74-1-1.58-2-2.36-3a10.75,10.75,0,0,1-1.08-1.58,19.29,19.29,0,0,0,1.89,1.25,4,4,0,0,1,1.78,1.88,14.37,14.37,0,0,1,1.57,3.89,7.43,7.43,0,0,1,.07,1.7c0,.38-.26.55-.71.46a7.11,7.11,0,0,1-4-2.45A13.09,13.09,0,0,1,92.49,27a.58.58,0,0,1,.13-.4c.26-.29.55-.55.82-.83a7.92,7.92,0,0,0,2.1,3.42,24.53,24.53,0,0,1,1.91,2.52A27.43,27.43,0,0,1,98.74,34.51Z"/><path class="cls-1" d="M16.52,34.38l.85.16c.08-.3.15-.57.24-.84a9.78,9.78,0,0,1,1.82-3.24c.51-.65,1.07-1.27,1.6-1.92a5.87,5.87,0,0,0,1.5-2.71c.31.29.62.56.9.86a.39.39,0,0,1,.07.33,13.7,13.7,0,0,1-2.38,5.75,7.53,7.53,0,0,1-4.38,2.9c-.48.11-.71,0-.76-.51a6.82,6.82,0,0,1,.11-1.75,14.81,14.81,0,0,1,1.49-3.67,4.25,4.25,0,0,1,1.94-2c.63-.3,1.17-.76,1.82-1.12-.2.3-.39.62-.62.91-.94,1.2-1.92,2.36-2.82,3.58A8.18,8.18,0,0,0,16.52,34.38Z"/><path class="cls-1" d="M8.11,62.69c.48.08.89.16,1.32.21a10.84,10.84,0,0,0,5.81-1.11c1.35-.58,2.71-1.13,4-1.69a1.18,1.18,0,0,1,1,.06c.62.29,1.27.52,1.82.74-1.91,1.05-3.84,2.19-5.83,3.21a10.08,10.08,0,0,1-7.57.44.61.61,0,0,1-.35-.37,9,9,0,0,1-.21-1A3.74,3.74,0,0,1,8.11,62.69Z"/><path class="cls-1" d="M93.76,61c.76-.31,1.47-.63,2.2-.91a1,1,0,0,1,.64,0c1.17.46,2.35.92,3.5,1.42a13,13,0,0,0,4.74,1.42,24.81,24.81,0,0,0,2.58-.16,4.25,4.25,0,0,0,.48-.07c-.11.59-.2,1.12-.33,1.64,0,.11-.26.22-.4.25a10.54,10.54,0,0,1-8.59-1c-1.32-.78-2.67-1.5-4-2.24A7.27,7.27,0,0,0,93.76,61Z"/><path class="cls-1" d="M28.44,27.22a14.63,14.63,0,0,1-.5,3.67,11.37,11.37,0,0,1-2.08,4.33,5.26,5.26,0,0,1-2.38,1.72c-.12-.64-.25-1.24-.33-1.85a12.9,12.9,0,0,1,.58-5.48c.25-.79.44-1.6.63-2.41a.5.5,0,0,1,.41-.43c.51-.15,1-.38,1.5-.58a3.11,3.11,0,0,1,.25.52.3.3,0,0,1,0,.29,11.33,11.33,0,0,0-1.42,4.14c-.3,1.44-.57,2.85-.86,4.31l.83.26c.22-1.05.43-2.08.66-3.1s.5-2.28.76-3.41a8.13,8.13,0,0,1,.34-.94A1.39,1.39,0,0,1,28.44,27.22Z"/><path class="cls-1" d="M92.44,37c-.59-.4-1.14-.7-1.61-1.09A7.12,7.12,0,0,1,89,33.46a14.12,14.12,0,0,1-1.44-6.14c1-.07,1.25,0,1.54.91.44,1.31.76,2.67,1.08,4,.27,1.13.48,2.28.72,3.47l.91-.26c-.9-2.85-.79-6-2.43-8.6l.28-.67c.59.22,1.16.42,1.72.64a.37.37,0,0,1,.2.24c.39,1.52.84,3,1.14,4.54A11.65,11.65,0,0,1,92.44,37Z"/><path class="cls-1" d="M54.07,1.61c.62,0,1.13,0,1.63,0,.12,0,.27.19.34.33a12.85,12.85,0,0,1,1.59,7.9v.2l.87.17c.17-2.89.9-5.74-.3-8.59h3.7a11.63,11.63,0,0,0-2,8.73H56.08A11.68,11.68,0,0,0,54.07,1.61Z"/><path class="cls-1" d="M36.8,81.25l.15-.38c1.17.38,2.35.67,3.46,1.14a7.1,7.1,0,0,1,2.09,1.38c1,.93,1.79,2,2.69,3a5.48,5.48,0,0,1-2.94.66,8.14,8.14,0,0,1-4-1c-.8-.46-1.66-.8-2.52-1.21L37,84.33l-1.09-2.44.51.18a12.29,12.29,0,0,1,4,2.57,8.59,8.59,0,0,0,3,2.06l.35-.82a10.28,10.28,0,0,1-3.33-2.41A13.1,13.1,0,0,0,36.8,81.25Z"/><path class="cls-1" d="M79.14,81.3a14.45,14.45,0,0,0-4.75,3.15A21.37,21.37,0,0,1,72.23,86l.28.69a7.93,7.93,0,0,0,2.86-1.92,12.49,12.49,0,0,1,4.25-2.73l.42-.14L79,84.32l1.38.54-.53.24c-.85.4-1.69.85-2.55,1.22a7.81,7.81,0,0,1-6.11.25,2.68,2.68,0,0,1-.38-.19c.35-.37.7-.71,1-1.07.55-.62,1.06-1.29,1.64-1.89a5.71,5.71,0,0,1,2.86-1.65c.89-.22,1.75-.57,2.68-.88Z"/><path class="cls-1" d="M78.49,12.92a8,8,0,0,1-3.44.42,1.2,1.2,0,0,1-.57-.24c-.91-.62-1.79-1.28-2.72-1.88s-2-1.21-3-1.86c.06-.28.15-.67.25-1.12a14.41,14.41,0,0,1,3.88,1.43c1,.55,1.81,1.25,2.71,1.89.65.46,1.29.93,2,1.44l.47-.8C76,11,74.37,9.11,72.08,8.31l-2.8-1c0-.47.22-.56.68-.43A19.71,19.71,0,0,1,75.7,9.25a12.4,12.4,0,0,1,2,1.8A3.14,3.14,0,0,1,78.49,12.92Z"/><path class="cls-1" d="M38.44,13c.78-.57,1.52-1,2.18-1.62a14.53,14.53,0,0,1,6.1-3.08l.25,0s.06.06.07.1c.32,1,.29,1-.62,1.5s-2,1.25-3,1.9a7.83,7.83,0,0,0-1,.73c-1.52,1.37-3.2.85-4.91.44a3.51,3.51,0,0,1,.67-1.81,7.56,7.56,0,0,1,2.66-2.24,23.42,23.42,0,0,1,5.7-2.1l.22.55-2,.65a13.67,13.67,0,0,0-4.44,2.51c-.72.6-1.49,1.14-2.28,1.73Z"/><path class="cls-1" d="M18.8,59.3c-2,.81-3.93,1.67-5.91,2.39a7.64,7.64,0,0,1-4.59.09c-.25-.06-.38-.16-.38-.44V60.1c.76-.09,1.52-.14,2.27-.3A2.85,2.85,0,0,0,12,58.69a.42.42,0,0,1,.35-.13,15.66,15.66,0,0,0,5.11-.21.39.39,0,0,1,.3,0C18.13,58.67,18.45,59,18.8,59.3Z"/><path class="cls-1" d="M108.05,60c0,.53,0,1,0,1.45,0,.11-.2.25-.34.3a8.54,8.54,0,0,1-5.72-.44c-1.59-.66-3.15-1.37-4.75-2.07.32-.29.65-.6,1-.88a.48.48,0,0,1,.31,0,15.15,15.15,0,0,0,5.07.23.47.47,0,0,1,.36.1A4.05,4.05,0,0,0,107,60,9,9,0,0,0,108.05,60Z"/><path class="cls-1" d="M86.16,15.06a5.26,5.26,0,0,1,2,.65c1.15.82,2.43,1.46,3.66,2.17s2.3,1.25,3.4,1.95a12.54,12.54,0,0,1,1.47,1.36,1.2,1.2,0,0,0,.37.15c.08,0,.2,0,.23.08.27.41.53.82.87,1.36-1.35-.1-2.57-.05-3.57-1a3.38,3.38,0,0,0-1-.48,3.93,3.93,0,0,1-.9-.38,28.88,28.88,0,0,1-2.36-2.07,13.08,13.08,0,0,0-3.41-2.6A1.33,1.33,0,0,1,86.16,15.06Z"/><path class="cls-1" d="M17.9,22.74c.31-.51.56-.92.82-1.33,0,0,.09-.1.11-.09.49.22.57-.25.77-.47A12.65,12.65,0,0,1,23,18.51l4.18-2.25a2.44,2.44,0,0,0,.59-.42,3.21,3.21,0,0,1,2.07-.77,1.25,1.25,0,0,1-.72,1.22,13.92,13.92,0,0,0-3.87,3.09A17.7,17.7,0,0,1,23,21.19a.53.53,0,0,1-.32.08A2,2,0,0,0,21,22.1a.65.65,0,0,1-.3.22A7.16,7.16,0,0,1,17.9,22.74Z"/><path class="cls-1" d="M49.22,86.8a6.6,6.6,0,0,0,2.23-5.32c.84.13,1.64.24,2.43.38.08,0,.19.2.19.31a9,9,0,0,1-1.28,4.59,2.67,2.67,0,0,0-.33,1.17c-.05.9,0,1.79,0,2.69v.82l-1.08.1a1.88,1.88,0,0,0,.17-2.24,11.13,11.13,0,0,0-1.22-1.52A13,13,0,0,0,49.22,86.8Z"/><path class="cls-1" d="M64.55,91.52l-1-.08v-.89c0-1,0-2.07-.07-3.11a1.36,1.36,0,0,0-.22-.62,8.93,8.93,0,0,1-1.35-4.49c0-.34.08-.5.46-.54.71-.07,1.42-.21,2.17-.32a6.59,6.59,0,0,0,2.24,5.33c-.21.18-.41.33-.59.51a18.1,18.1,0,0,0-1.37,1.4A2.18,2.18,0,0,0,64.55,91.52Z"/><path class="cls-1" d="M105.75,87.78a4.76,4.76,0,0,1-3.09-4.11c0-.24,0-.48,0-.72a2.54,2.54,0,0,1,.91-2.46,8.37,8.37,0,0,0,1.34-1.59C105.54,81.85,106.47,84.67,105.75,87.78Z"/><path class="cls-1" d="M10.25,87.73A8,8,0,0,1,10,86.45,23,23,0,0,1,11.13,79s0,0,0,0c.67.72,1.35,1.43,2,2.16a.64.64,0,0,1,.14.34A7.5,7.5,0,0,1,13,85.16,4.36,4.36,0,0,1,10.25,87.73Z"/><path class="cls-1" d="M45.49,92.15a5.74,5.74,0,0,1-4.74-.63,6.23,6.23,0,0,1-1.86-2c-.58-.95-1.28-1.83-1.93-2.73a2.27,2.27,0,0,1-.3-.46l.46.19a11.75,11.75,0,0,1,4.47,3.45,5.59,5.59,0,0,0,2.84,2l.32-.83C43,90.64,42.17,89.1,41,88h2a.44.44,0,0,1,.22.07A5,5,0,0,1,45.52,92,.64.64,0,0,1,45.49,92.15Z"/><path class="cls-1" d="M70.49,92.18A4.57,4.57,0,0,1,72,88.7a2.05,2.05,0,0,1,1.81-.76,6.65,6.65,0,0,0,1.26,0c-1.21,1.19-2,2.73-3.8,3.21.12.3.21.55.32.84a5.7,5.7,0,0,0,2.6-1.71c.56-.63,1.11-1.28,1.73-1.86a10.11,10.11,0,0,1,3.44-2,3.57,3.57,0,0,0-.31.37c-.68,1-1.42,1.89-2,2.91a5.47,5.47,0,0,1-5.44,2.66C71.22,92.27,70.88,92.24,70.49,92.18Z"/><path class="cls-1" d="M82.87,85.34a10.26,10.26,0,0,0-3.14,3.43c-.53.85-1.15,1.64-1.76,2.5l.54.61c.44-.52.88-1,1.25-1.52.55-.76,1-1.59,1.56-2.36a8.65,8.65,0,0,1,3.24-2.63,4.8,4.8,0,0,1-.28.39,6.11,6.11,0,0,0-1.39,3.95c0,.33-.12.46-.42.62a8.93,8.93,0,0,0-2,1.32,2.93,2.93,0,0,1-2.7.72.43.43,0,0,1-.3-.3,4.11,4.11,0,0,1,.17-1.62,15.66,15.66,0,0,1,1.66-2.67,20.94,20.94,0,0,1,2-2C81.88,85.15,81.89,85.15,82.87,85.34Z"/><path class="cls-1" d="M37.49,91.85l.43-.46c0-.06.09-.13.06-.09-.78-1.16-1.52-2.27-2.28-3.38a9.3,9.3,0,0,0-2.53-2.55c.83-.28.88-.27,1.45.27a19,19,0,0,1,3.16,3.66,4.07,4.07,0,0,1,.76,2.57c0,.38-.2.5-.58.54a3,3,0,0,1-2.64-.93,11.53,11.53,0,0,0-1.87-1.21c-.13-.09-.31-.25-.31-.38a6.9,6.9,0,0,0-1.59-4.41,2.85,2.85,0,0,1,.31.12,9,9,0,0,1,3.39,3.25c.51.83,1.1,1.61,1.67,2.4A5.34,5.34,0,0,0,37.49,91.85Z"/><path class="cls-1" d="M11.76,67.62a10.6,10.6,0,0,1,1.34.26.6.6,0,0,1,.33.38c.37,1.66.82,3.32,1,5s.15,3.41.21,5.12c0,.2,0,.41-.05.74A22.73,22.73,0,0,1,11.76,67.62Z"/><path class="cls-1" d="M101.34,79c0-1.24,0-2.48,0-3.72a26.68,26.68,0,0,1,1.06-6.65c.16-.54.37-.89,1-.87a4.54,4.54,0,0,0,.82-.14A21.58,21.58,0,0,1,101.34,79Z"/><path class="cls-1" d="M80.67,82.57c.65-.77,1.27-1.58,2-2.32C83.73,79.09,84.9,78,86,76.83a11.84,11.84,0,0,0,1-1.42c.08-.12.18-.28.3-.32,1.15-.39,2.3-.75,3.53-1.14a3.8,3.8,0,0,1-.25.81,12.11,12.11,0,0,1-4.29,4.36c-1.31.86-2.66,1.66-4,2.51-.51.33-1,.71-1.46,1.07Z"/><path class="cls-1" d="M35.31,82.69c-2.06-1.33-4.15-2.65-6.21-4a11,11,0,0,1-3.65-3.93,5.56,5.56,0,0,1-.29-.9c.7.28,1.27.54,1.84.74a6.67,6.67,0,0,1,1.72.54c.46.33.66,1,1.05,1.43.71.8,1.48,1.55,2.21,2.33,1,1,1.91,2.06,2.85,3.1A5.53,5.53,0,0,1,35.31,82.69Z"/><path class="cls-1" d="M81.79,8.22a4.56,4.56,0,0,1-2.63-.36,3.86,3.86,0,0,0-1.8-.38,15,15,0,0,1-4.9-1c-.8-.27-1.59-.58-2.42-.88a1.2,1.2,0,0,1,1.15-.85,15.11,15.11,0,0,1,10.18,3.1Z"/><path class="cls-1" d="M46,5.58c-2.53.94-4.95,1.92-7.64,1.9a3.71,3.71,0,0,0-1.42.35,5.47,5.47,0,0,1-2.77.39c.45-.34.76-.6,1.12-.84a15.05,15.05,0,0,1,9.81-2.61C45.61,4.81,45.69,5.22,46,5.58Z"/><path class="cls-1" d="M78.11,14c.27-.31,1,0,.92-.76l.41-.08c-.09-.49-.17-1-.26-1.47A11.74,11.74,0,0,1,84.8,17l.35-.14.4-.19c0,.27.07.51.09.73s0,.45,0,.73l-1.47-.51a7.76,7.76,0,0,1-.82-.25,2.72,2.72,0,0,1-.8-.53,2,2,0,0,0-1.78-.63.63.63,0,0,1-.46-.1c-.73-.65-1.44-1.32-2.15-2A.37.37,0,0,1,78.11,14Z"/><path class="cls-1" d="M49.53,80.31,48,80.22c3-9,4.31-18.19,5.18-27.5,0,.43,0,.87-.07,1.3-.39,4.23-.73,8.47-1.2,12.7-.27,2.44-.84,4.85-1.1,7.29a13.53,13.53,0,0,1-.49,2.44C50,77.69,49.81,79,49.53,80.31Z"/><path class="cls-1" d="M38.53,78.6l.54-.58.71,1.23-.12.11c-.6-.14-1.19-.3-1.79-.41-1.31-.23-2.62-.42-3.92-.66a5.58,5.58,0,0,1-3.71-2.59A2,2,0,0,1,29.77,74a5.2,5.2,0,0,0,.09-1,2.61,2.61,0,0,1,1.59,1.07,7.58,7.58,0,0,0,3.26,2.6C36,77.31,37.21,77.94,38.53,78.6Z"/><path class="cls-1" d="M76.9,78l.57.61c1.66-.86,3.31-1.68,4.93-2.56a6.61,6.61,0,0,0,2.31-2.18c.22-.33.41-.63.86-.66a1.7,1.7,0,0,0,.51-.24,3.33,3.33,0,0,1-.68,3.23,5.73,5.73,0,0,1-3.3,2.06c-1.92.38-3.85.7-5.92,1.07Z"/><path class="cls-1" d="M62.82,53C63.67,62.23,65,71.33,68,80.21l-1.5.1c-.2-.94-.38-1.86-.58-2.78a4.29,4.29,0,0,0-.64-2,.67.67,0,0,1-.12-.51,9.73,9.73,0,0,0-.34-3.4c-.49-3.85-1-7.69-1.49-11.55-.25-2.12-.32-4.24-.47-6.36C62.8,53.47,62.82,53.24,62.82,53Z"/><path class="cls-1" d="M30.32,18.13c0-.51.06-.95.1-1.46L31,17c.85-1,1.62-2.09,2.5-3a9.5,9.5,0,0,1,3.27-2.19l-.26,1.43c.28.07.57.12.34.51L38,14l-.37.33c-.6.55-1.2,1.1-1.78,1.67a.53.53,0,0,1-.57.18,1.84,1.84,0,0,0-2,.76,1.37,1.37,0,0,1-.59.41C31.93,17.63,31.17,17.86,30.32,18.13Z"/><path class="cls-1" d="M88.77,83.26l.81.71c-.84,3.1-3.55,4.62-5.83,6.67a6.91,6.91,0,0,1,.51-3.16,8.36,8.36,0,0,1,3-3.26Z"/><path class="cls-1" d="M32.23,90.64c-1.27-1.1-2.52-2.11-3.69-3.19a7.79,7.79,0,0,1-2.11-3.38l.87-.73a12.52,12.52,0,0,1,3.91,3.25A6.37,6.37,0,0,1,32.23,90.64Z"/><path class="cls-1" d="M105.34,67.41c.13.71.26,1.42.38,2.14.19,1.13.38,2.27.56,3.41a2.7,2.7,0,0,1-.28,1.85c-.82,1.41-1.57,2.85-2.42,4.24a5.22,5.22,0,0,1-2.1,1.91c0-.58-.08-1.11-.13-1.73l.77.36a24,24,0,0,0,3-12.19Z"/><path class="cls-1" d="M14.36,81c-.55-.47-1.08-1-1.58-1.48a19.27,19.27,0,0,1-3-5.27,4.24,4.24,0,0,1,0-2c.22-1.52.51-3,.78-4.58a.35.35,0,0,1,.18-.23,35.69,35.69,0,0,0,.76,6.27,24,24,0,0,0,2.33,5.93l.77-.36-.1,1.62Z"/><path class="cls-1" d="M89.34,64.4c-.73,1.27-1.44,2.47-2.15,3.67a.64.64,0,0,1-.2.2A24.75,24.75,0,0,0,83,71.68c-.58.55-1.19,1-1.81,1.61,0-.15-.07-.18-.06-.19,1.17-1.75,2.31-3.53,3.53-5.25.78-1.1,1.68-2.13,2.53-3.19a1,1,0,0,1,1.06-.37A9.35,9.35,0,0,0,89.34,64.4Z"/><path class="cls-1" d="M34.74,73.25c-.58-.5-1.17-1-1.72-1.52a26.16,26.16,0,0,0-4-3.48.84.84,0,0,1-.25-.28l-2.1-3.37a1.18,1.18,0,0,1-.07-.2c.56-.05,1.09-.12,1.63-.14a.61.61,0,0,1,.39.26,25.54,25.54,0,0,1,2,2.31c1.44,2.1,2.79,4.24,4.17,6.36Z"/><path class="cls-1" d="M90.8,83.81c0,.47-.11.94-.12,1.41,0,.76,0,1.53,0,2.3a2.6,2.6,0,0,1-1.9,2.87c-1.18.41-2.41.7-3.62,1l-1,.31-.07-.11c.43-.4.84-.81,1.28-1.19.87-.76,1.78-1.46,2.62-2.24a9.23,9.23,0,0,0,2.52-4,4.11,4.11,0,0,1,.21-.42Z"/><path class="cls-1" d="M25.24,83.74a2.48,2.48,0,0,1,.26.4,11,11,0,0,0,4,5.34c.79.62,1.52,1.31,2.28,2a.41.41,0,0,1,.11.32c-1.67-.51-3.36-1-5-1.57a2.49,2.49,0,0,1-1.54-2.58c0-1.21-.07-2.42-.1-3.63Z"/><path class="cls-1" d="M100.49,80.33c.47,3.09.09,5.87-2.14,8.17l.59.61L97.46,90a12.07,12.07,0,0,0,.1-2.37,6,6,0,0,1,1.08-4c.59-1,1.14-2,1.71-3Z"/><path class="cls-1" d="M15.5,80.31c.89,1.6,1.78,3.16,2.62,4.75A3.61,3.61,0,0,1,18.45,87c0,.84.05,1.69.08,2.54V90l-1.48-.85.58-.62C15.39,86.16,15,83.37,15.5,80.31Z"/><path class="cls-1" d="M107.7,46.86a1.34,1.34,0,0,1-.22,1.54A40.89,40.89,0,0,1,99,56.65a.41.41,0,0,1-.27.07L99,56.2a18.19,18.19,0,0,1,3.87-4.55c.8-.71,1.64-1.39,2.4-2.14S106.89,47.74,107.7,46.86Z"/><path class="cls-1" d="M8.32,46.75a14,14,0,0,0,1.11,1.43c1.21,1.18,2.48,2.33,3.72,3.47A18.89,18.89,0,0,1,17,56.07l.41.74a3,3,0,0,1-.36-.19,39.3,39.3,0,0,1-8.45-8.19C8,47.69,8,47.69,8.32,46.75Z"/><path class="cls-1" d="M22,24.58a15.72,15.72,0,0,1-6,3.9c-.12-1.84,2.42-4.56,4.77-5.11A1.57,1.57,0,0,0,22,24.58Z"/><path class="cls-1" d="M95.23,23.37c2.22.39,4.81,3.08,4.84,5-1.2-.06-4.84-2.34-6-3.76A1.55,1.55,0,0,0,95.23,23.37Z"/><path class="cls-1" d="M86.14,92.09l-1.46,2.43.91.33a5.43,5.43,0,0,1,1.74-2.5,16.4,16.4,0,0,1,2.6-1.5c-.72,1.09-.76,2.47-1.71,3.43a4.56,4.56,0,0,1-3.38,1.44.6.6,0,0,1-.46-.29,3,3,0,0,1,.38-2.83.41.41,0,0,1,.22-.17Z"/><path class="cls-1" d="M26.06,90.89a6.51,6.51,0,0,1,4.34,3.94l.92-.29L29.9,92.16a1.53,1.53,0,0,1,1.74,1.28,1.91,1.91,0,0,1,.11.41c.11.63.2,1.37-.28,1.76-.29.24-1,.08-1.46,0a4.29,4.29,0,0,1-3.17-2.9C26.61,92.06,26.32,91.48,26.06,90.89Z"/><path class="cls-1" d="M82.82,91.23c-.06.3-.11.62-.2.92s-.14.46.12.67.43.39.72.17l-.2,2.12-8.5-2.25,1.77-1.13c.07.44.13.87.2,1.36,1.56.32,3.14.56,4.46-.88a9.57,9.57,0,0,1,1.46-1.12Z"/><path class="cls-1" d="M32.73,95.12l-.2-2.1c.63.15,1-.25.81-.93-.07-.29-.11-.59-.16-.88l.13-.11a7.29,7.29,0,0,1,1.33,1,3.85,3.85,0,0,0,4,1.15l.62-.11s.05,0,0,0c.06-.47.13-.9.19-1.35l1.8,1.13Z"/><path class="cls-1" d="M8.4,49.73c.38.45.76.87,1.09,1.31a.6.6,0,0,1,.12.43,9.76,9.76,0,0,1-.25,1.31c-.13.51-.28.94-1,1a2.05,2.05,0,0,0-1.13.86,2.71,2.71,0,0,1-1.64.87A17.51,17.51,0,0,1,8.4,49.73Z"/><path class="cls-1" d="M107.6,49.72a18.09,18.09,0,0,1,2.77,5.83,2.14,2.14,0,0,1-1.59-.83,2.14,2.14,0,0,0-1.54-1,.54.54,0,0,1-.37-.27c-.2-.67-.36-1.35-.51-2a.41.41,0,0,1,.1-.3C106.82,50.64,107.21,50.19,107.6,49.72Z"/><path class="cls-1" d="M26.1,94.85a3.68,3.68,0,0,0-.3-.39c-.55-.51-1.08-1-1.66-1.52a13.45,13.45,0,0,1-2.85-3.44c-.1-.15,0-.43,0-.64L24,90a.37.37,0,0,1,.12.07,6.09,6.09,0,0,1,2.08,4.7S26.19,94.78,26.1,94.85Z"/><path class="cls-1" d="M52,10l.77.11c0,.67,0,.7-.66.81l-1.17.22c.09-1.27.24-2.51.27-3.74a6.22,6.22,0,0,0-.8-3.64l-.71.46c.85,1.71.66,3.48.47,5.26-.06-2.53-.32-5-2.07-7.09a9.42,9.42,0,0,1,1.2-.23.77.77,0,0,1,.46.26A8,8,0,0,1,52,8.29C52,8.85,52,9.41,52,10Z"/><path class="cls-1" d="M94.62,88.88a.67.67,0,0,1,0,.87,13.85,13.85,0,0,1-3.26,3.61c-.54.39-1,.94-1.57,1.41a7.33,7.33,0,0,1,.09-1.15,6.59,6.59,0,0,1,1.88-3.43A.82.82,0,0,1,92,90Z"/><path class="cls-1" d="M65.84,9.58a9.25,9.25,0,0,1,.44-5.32l-.66-.45c-.89,1.08-1,2.92-.51,7.37-.59-.12-1.16-.2-1.71-.37-.13,0-.17-.37-.26-.64l.94-.16c0-.34,0-.67-.06-1a8.57,8.57,0,0,1,1.91-6.26,1.09,1.09,0,0,1,1.38-.46,3.39,3.39,0,0,0,.57.13C66.14,4.53,65.84,7,65.84,9.58Z"/><path class="cls-1" d="M103.76,33.7l.75-.06v.63c-1.83.11-4.42-2.7-5.28-5.14l1.8.63c0-.18,0-.32.07-.56A7.15,7.15,0,0,1,103.76,33.7Z"/><path class="cls-1" d="M44.42,87.62a4.94,4.94,0,0,1,.57.26,30.62,30.62,0,0,0,5.59,2.77l.29-.61a.86.86,0,0,1-.26.95,3.8,3.8,0,0,1-4,.45.65.65,0,0,1-.26-.37,5.81,5.81,0,0,0-1.85-3.16l-.12-.14Z"/><path class="cls-1" d="M65.14,90.06l.28.65c1.11-.51,2.22-1,3.29-1.52.81-.41,1.58-.9,2.37-1.35a4.34,4.34,0,0,1,.5-.2l.06.11L71.4,88a6,6,0,0,0-1.74,3,.9.9,0,0,1-.35.44,3.93,3.93,0,0,1-3.8-.37A.89.89,0,0,1,65.14,90.06Z"/><path class="cls-1" d="M14.87,29.22l.08.56,1.78-.64c-.7,2.32-3.37,5.07-5.27,5.17v-.67l.76.07A7.17,7.17,0,0,1,14.87,29.22Z"/><path class="cls-1" d="M44.22,82.24a4.48,4.48,0,0,0,1-.16,1.28,1.28,0,0,1,1.52.4A10.15,10.15,0,0,1,48.93,85a.94.94,0,0,1-.38,1.28,1.08,1.08,0,0,1-.47.11,3.68,3.68,0,0,1-2.82-1.2c-.84-.91-1.63-1.87-2.43-2.83a18.22,18.22,0,0,0,5.47,3.16l.31-.82A16.37,16.37,0,0,1,44.22,82.24Z"/><path class="cls-1" d="M71.75,82.27a16.69,16.69,0,0,1-4.36,2.39c.1.28.18.53.31.89.92-.44,1.83-.83,2.68-1.32s1.65-1.07,2.51-1.58c-1.18,1.07-1.81,2.71-3.41,3.35a5.32,5.32,0,0,1-1.52.34.92.92,0,0,1-1-.84.91.91,0,0,1,.12-.56,10.81,10.81,0,0,1,2.85-3,.41.41,0,0,1,.31,0Z"/><path class="cls-1" d="M19.5,89.71a1.56,1.56,0,0,1,1.42.86A12.24,12.24,0,0,0,24,94a11.6,11.6,0,0,1,1.7,1.66C23.16,95.6,20.12,93.19,19.5,89.71Z"/><path class="cls-1" d="M96.51,89.67a7.46,7.46,0,0,1-6.32,6.09A19.06,19.06,0,0,1,91.94,94a13.84,13.84,0,0,0,3.12-3.4C95.56,89.89,95.56,89.89,96.51,89.67Z"/><path class="cls-1" d="M35.91,9.48,37,10.68a12.51,12.51,0,0,0-6.38,5.57C30.48,14,33.3,10.54,35.91,9.48Z"/><path class="cls-1" d="M85.45,16.22c-2.51-3.42-3-3.82-6.43-5.54l1.07-1.21A9.34,9.34,0,0,1,85.45,16.22Z"/><path class="cls-1" d="M83.9,11c1.07.51,2.12,1,3.17,1.48l1,.5c.86.42.86.42,1,1.52l-2.37-.27a1.6,1.6,0,0,1-1.41-1A17.79,17.79,0,0,0,83.9,11Z"/><path class="cls-1" d="M32,11.11l-1.67,2.7a.54.54,0,0,1-.23.22,9.84,9.84,0,0,1-3.19.44,1.25,1.25,0,0,1,.82-1.4c1.37-.57,2.7-1.24,4-1.87A1.57,1.57,0,0,1,32,11.11Z"/><path class="cls-1" d="M54.61,69.26c-.06,1.95-.1,3.9-.17,5.85,0,.37-.12.73-.2,1.08a1.69,1.69,0,0,0-.05.67c.35,1.36-.13,2.69-.09,4.09l-1.19-.18c.21-1.38.4-2.72.61-4a1.07,1.07,0,0,1,.26-.4A1.42,1.42,0,0,0,54,74.83a1.34,1.34,0,0,1-.06-.69c.21-1.62.45-3.25.67-4.87Z"/><path class="cls-1" d="M62.25,34.19a3.21,3.21,0,0,0,0,.62c.16.67-.46.92-.72,1.36a.67.67,0,0,1-.32-.17c-.12-.14-.13-.39-.25-.47a1,1,0,0,1-.46-1.16c0-.78.06-1.56.13-2.33,0-.22.16-.54.32-.6a.62.62,0,0,1,.79.19,1.59,1.59,0,0,1,.41,1c.06.51.09,1,.13,1.53Z"/><path class="cls-1" d="M54.62,36.19c-.22,0-.85-.67-.85-.94,0-1,.06-2.1.15-3.15a.89.89,0,0,1,.88-.72c.38,0,.54.17.56.55,0,.9.09,1.81.15,2.72a.87.87,0,0,1-.34.78A3.67,3.67,0,0,0,54.62,36.19Z"/><path class="cls-1" d="M63.1,80.77l-1.16.2c0-.51-.11-1-.13-1.45a7.43,7.43,0,0,1,0-2.66,1.83,1.83,0,0,0,0-.66c-.15-2.28-.31-4.55-.46-6.83h.14c.2,1.47.4,2.93.61,4.4A2.39,2.39,0,0,1,62,75.12a1.06,1.06,0,0,0,.1.9,3.71,3.71,0,0,1,.6,1.92C62.79,78.86,62.94,79.79,63.1,80.77Z"/><path class="cls-1" d="M69,81.42,66.11,84.5a5.07,5.07,0,0,1-.62-3.18C66.65,81.28,67.83,80.84,69,81.42Z"/><path class="cls-1" d="M47,81.41c1.15-.57,2.32-.13,3.51-.1a5.62,5.62,0,0,1-.61,3.22Z"/><path class="cls-1" d="M106.25,67.36c.48-.15.68,0,.82.4a14.35,14.35,0,0,1,.78,7.2,4,4,0,0,1-.36-.82c-.21-.94-.38-1.9-.55-2.86C106.7,70,106.48,68.67,106.25,67.36Z"/><path class="cls-1" d="M9.77,67.37c-.62,2.52-.65,5.14-1.55,7.57H8.06c0-.17-.06-.35-.08-.53a16,16,0,0,1,.94-6.65C9.07,67.37,9.26,67.21,9.77,67.37Z"/><path class="cls-1" d="M75.72,14.34a1.57,1.57,0,0,1,1.7.34c.69.66,1.42,1.28,2.13,1.92a.55.55,0,0,1,.19.62,1.6,1.6,0,0,0,.52,1.7A2.42,2.42,0,0,1,81,21.09C80.15,18.15,77.65,16.51,75.72,14.34Z"/><path class="cls-1" d="M40.29,14.46c-.48.44-1,.86-1.43,1.33-.76.76-1.52,1.54-2.24,2.36a7.83,7.83,0,0,0-1.62,3,2.52,2.52,0,0,1,.61-2.16,2,2,0,0,0,.6-1.82.54.54,0,0,1,.14-.42c.89-.8,1.78-1.62,2.71-2.35.26-.19.76-.09,1.14-.12Z"/><path class="cls-1" d="M76.75,16.75h-.51c-.3-.51-1-.05-1.44-.44l.4-.7c-2.15-1.56-4.31-3.11-6.44-4.67a1.91,1.91,0,0,1-.31-.38l.17-.19A25.71,25.71,0,0,1,76.75,16.75Z"/><path class="cls-1" d="M40.8,15.61l.39.67v0c-.41.37-1.1-.07-1.43.42h-.51a26.1,26.1,0,0,1,8.1-6.38l.17.13c-.05.13-.08.31-.18.38C45.17,12.46,43,14,40.8,15.61Z"/><path class="cls-1" d="M61.62,10.53c-.76.05-.76.05-.87-.62a10.39,10.39,0,0,1,2.1-8,.64.64,0,0,1,.41-.18A11.79,11.79,0,0,0,61.62,10.53Z"/><path class="cls-1" d="M52.81,1.69a1.7,1.7,0,0,1,.38.26,10.61,10.61,0,0,1,2,8.15c-.09.56-.46.44-.86.47A11.48,11.48,0,0,0,52.69,1.8Z"/><path class="cls-1" d="M63.27,28.77c-.7-.14-1.39-.35-2.1-.43s-1.54-.09-2.32-.12-1.36,0-2.05,0a10.61,10.61,0,0,0-3.53.48l-.57.17-.06-.12a2.83,2.83,0,0,1,.67-.4,22.34,22.34,0,0,1,3-.68,14.62,14.62,0,0,1,5.43.33,14.4,14.4,0,0,1,1.64.66Z"/><path class="cls-1" d="M62.61,90.51V91H53.4v-.53Z"/><path class="cls-1" d="M32,72c.71,1,1.79,1.52,2.53,2.5a13,13,0,0,0,2.15,1.87c.26.2.51.36.76.57-1.89-.87-3.92-1.52-5.25-3.29C31.77,73.08,31.56,72.6,32,72Z"/><path class="cls-1" d="M84,72c.43.61.19,1.09-.21,1.59a6.68,6.68,0,0,1-2.21,1.88,25.91,25.91,0,0,1-3,1.37l1-.69a6.15,6.15,0,0,0,2.27-2.23c.07-.14.25-.23.39-.34Z"/><path class="cls-1" d="M75.52,80l.25.49,3-.86c-1.47,1.66-7.58,2.25-9.35,1l1-.61v.87A11.2,11.2,0,0,0,75.52,80Z"/><path class="cls-1" d="M40.24,80.51l.24-.48a11.35,11.35,0,0,0,5,.84l.06-.85,1,.59c-2,1.45-7.32.58-9.38-.82l0-.12Z"/><path class="cls-1" d="M108.61,56.64c-.11.72-.21,1.45-.33,2.18a.45.45,0,0,1-.23.26,4.22,4.22,0,0,1-3.09-.67Z"/><path class="cls-1" d="M70.05,3.06A12,12,0,0,0,66.8,8.77a8.9,8.9,0,0,1,1.55-5.5c.5-.65.5-.64,1.26-.39Z"/><path class="cls-1" d="M7.4,56.65l3.66,1.78a2.59,2.59,0,0,1-.39.25,5.1,5.1,0,0,1-2.46.46.49.49,0,0,1-.54-.43.09.09,0,0,1,0-.05C7.58,58,7.49,57.3,7.4,56.65Z"/><path class="cls-1" d="M86.37,30.19a3.49,3.49,0,0,1-.55-1.82,12.73,12.73,0,0,0-1.2-5.53.94.94,0,0,1,0-.18c.21.25.39.46.55.68a8.18,8.18,0,0,1,1.43,4.3c0,.63.09,1.25.09,1.87a2.7,2.7,0,0,1-.18.69Z"/><path class="cls-1" d="M49.24,8.66c-.47-1.07-.82-2.1-1.34-3S46.68,3.89,46.05,3a5,5,0,0,1,.85-.28.69.69,0,0,1,.47.22,7.28,7.28,0,0,1,1.71,4C49.16,7.49,49.18,8,49.24,8.66Z"/><path class="cls-1" d="M29.6,30.25c-1-1.25.21-6.24,1.82-7.6l-.5,1.25a12.14,12.14,0,0,0-.76,4.3A4.56,4.56,0,0,1,29.6,30.25Z"/><path class="cls-1" d="M65.28,89.69a7.1,7.1,0,0,1,2.34-2.35c.19-.13.51-.08.75-.12A6.56,6.56,0,0,0,69.44,87a.68.68,0,0,1,.88.23A24.25,24.25,0,0,1,65.28,89.69Z"/><path class="cls-1" d="M45.66,87.23a.71.71,0,0,1,.92-.22,1.38,1.38,0,0,0,.69.16,2.86,2.86,0,0,1,2.28,1.1,8.55,8.55,0,0,1,1.17,1.38A22.63,22.63,0,0,1,45.66,87.23Z"/><path class="cls-1" d="M106.54,82c-.26-1-.47-2.08-.81-3.09a2,2,0,0,1,.2-2,14,14,0,0,0,.73-1.38A30.06,30.06,0,0,1,106.54,82Z"/><path class="cls-1" d="M59.08,22.18c0,.66-.59,1.45-1.09,1.45s-1.09-.81-1.09-1.46.61-1.34,1.1-1.34S59.09,21.58,59.08,22.18Z"/><path class="cls-1" d="M9.34,82V75.55a11,11,0,0,0,.74,1.4,1.94,1.94,0,0,1,.19,1.88c-.33,1-.55,2.09-.82,3.14Z"/><path class="cls-1" d="M58.4,17.25h-.8c.07-1.61-.48-3.25.47-4.87C59,14,58.31,15.63,58.4,17.25Z"/><path class="cls-1" d="M40.2,77.87l5.07,1.95,0,.19c-.52,0-1,0-1.55-.1-.76-.12-1.52-.29-2.28-.48a1.18,1.18,0,0,1-1-.92,2.34,2.34,0,0,0-.27-.55Z"/><path class="cls-1" d="M70.7,79.84l5.12-2A2,2,0,0,1,74,79.64c-1.06.17-2.13.3-3.19.45Z"/><path class="cls-1" d="M26.76,15.52l-6,3.15C21.57,17.12,25.2,15.12,26.76,15.52Z"/><path class="cls-1" d="M95.23,18.69l-6.07-3.21C90.57,15,93.93,16.83,95.23,18.69Z"/><path class="cls-1" d="M93.29,37.44c.13-.62.25-1.21.39-1.8h0v1.61l.86,0V33.92A1.65,1.65,0,0,1,95.49,36a4.92,4.92,0,0,1-.38,1c-.4.78-.65.86-1.48.53C93.52,37.56,93.43,37.5,93.29,37.44Z"/><path class="cls-1" d="M26.92,35.68c.09,1.07.19,2.34.3,3.69a4.89,4.89,0,0,1-1.58-2.43.36.36,0,0,1,.1-.29C26.16,36.29,26.61,35.94,26.92,35.68Z"/><path class="cls-1" d="M22.33,35.79c.11.46.24.92.31,1.39a.48.48,0,0,1-.2.38c-.81.41-1.15.3-1.57-.51a4.18,4.18,0,0,1-.31-.76,1.8,1.8,0,0,1,.84-2.4v3.36h.86V35.78Z"/><path class="cls-1" d="M88.78,39.31c.1-1.29.2-2.57.29-3.61l1.25,1a.29.29,0,0,1,0,.22A4.6,4.6,0,0,1,88.78,39.31Z"/><path class="cls-1" d="M58,86.43a7.09,7.09,0,0,1,1,.25c.34.13.38.39.19.7a1.48,1.48,0,0,1-2.05.39,1.67,1.67,0,0,1-.38-.37c-.21-.32-.16-.6.2-.73A7.33,7.33,0,0,1,58,86.43Z"/><path class="cls-1" d="M53.78,38.22V36.9a4.93,4.93,0,0,0,.54.19,1,1,0,0,0,1.29-.68,1,1,0,0,1,.44-.51v2.81C55,37.44,54.74,37.38,53.78,38.22Z"/><path class="cls-1" d="M59.93,38.6V35.81a2.86,2.86,0,0,1,.4.45c.44.94.9,1.1,1.88.63v1.38c-.35-.34-.69-.79-1.2-.53A5.52,5.52,0,0,0,59.93,38.6Z"/><path class="cls-1" d="M104.64,53.19c.09,1,.19,2,.28,3l.57.09-.32.6-1.8-2.69,1.11-1Z"/><path class="cls-1" d="M11.51,53.17l1.12,1.06-1.8,2.67-.33-.55.57-.12c.09-1,.18-2,.28-3Z"/><path class="cls-1" d="M56.14,54.11q-.27,8.13-.55,16.28h-.12L56,54.1Z"/><path class="cls-1" d="M60,54.19l.51,16.86h-.11q-.29-8.41-.58-16.84Z"/><path class="cls-1" d="M22.6,72c.54.42,1,.78,1.49,1.16a1.37,1.37,0,0,1,.22,1.25.42.42,0,0,1-.18.14A1.42,1.42,0,0,1,23,73.77Z"/><path class="cls-1" d="M102.63,54.9c.36.44.71.86,1,1.31a.43.43,0,0,1,0,.38,1.1,1.1,0,0,1-1.46-.08C101.72,55.87,101.8,55.55,102.63,54.9Z"/><path class="cls-1" d="M50.73,2.05c2.53,2.05,2.62,4.78,2.14,7.67A10.19,10.19,0,0,0,50.73,2.05Z"/><path class="cls-1" d="M85.18,72.4a1.25,1.25,0,0,1,.28-1.82l1.05-.89C86.45,71.31,86.12,72,85.18,72.4Z"/><path class="cls-1" d="M13.37,54.94c.85.57.92.79.47,1.48a.77.77,0,0,1-.51.35,6.15,6.15,0,0,1-1.05-.24,3.84,3.84,0,0,1,.34-.78A7.2,7.2,0,0,1,13.37,54.94Z"/><path class="cls-1" d="M29.41,69.61A12.36,12.36,0,0,1,30.93,71c.32.41.1.93-.09,1.47-.54-.34-1-.61-1.12-1.29C29.65,70.7,29.53,70.22,29.41,69.61Z"/><path class="cls-1" d="M93.38,72a8.05,8.05,0,0,1-.46,1.89c-.16.32-.7.45-1.08.65,0,0-.15-.11-.18-.18A1.29,1.29,0,0,1,92,73Z"/><path class="cls-1" d="M65.21,2.14A9.92,9.92,0,0,0,63.1,9.33C62.51,6.78,63.08,3.55,65.21,2.14Z"/><path class="cls-1" d="M101.59,81.94A6.22,6.22,0,0,1,100,88.22l-.26.23a.35.35,0,0,1-.14.06A9.73,9.73,0,0,0,101.59,81.94Z"/><path class="cls-1" d="M102,57.84l-2.66-.21,0-.13L101,56.23Z"/><path class="cls-1" d="M15,56.24l1.65,1.25,0,.14L14,57.84Z"/><path class="cls-1" d="M16.3,88.4a6.22,6.22,0,0,1-2.16-3.78,4.31,4.31,0,0,1,.08-1,16.27,16.27,0,0,1,.14-1.69A10.2,10.2,0,0,0,16.3,88.4Z"/><path class="cls-1" d="M24.86,38.27a1.16,1.16,0,0,1-1,1.12c-.39,0-.53-.25-.54-.6a1.17,1.17,0,0,1,1-1.08C24.72,37.69,24.83,38,24.86,38.27Z"/><path class="cls-1" d="M29.52,11c1.18-.67,2.34-1.37,3.55-2,.27-.14.67,0,1,0l0,.15-4.49,2Z"/><path class="cls-1" d="M91.38,37.74c.71,0,1.28.84,1,1.36a.69.69,0,0,1-.5.31A1.06,1.06,0,0,1,91,38.07,1.15,1.15,0,0,1,91.38,37.74Z"/><path class="cls-1" d="M86.29,11.15l-4.44-2a1.53,1.53,0,0,1,1.41,0c1,.62,2.08,1.21,3.12,1.82Z"/><path class="cls-1" d="M57.2,18.15a4.33,4.33,0,0,1,.72,0c.26.06.62-.22.73.21s-.27,1.43-.57,1.49a.42.42,0,0,1-.38-.19C57.52,19.21,57.39,18.74,57.2,18.15Z"/><path class="cls-1" d="M96.8,35.92c.7,0,1.34.84,1.06,1.32a.85.85,0,0,1-.68.3,1,1,0,0,1-.69-1.32A1.11,1.11,0,0,1,96.8,35.92Z"/><path class="cls-1" d="M19.56,36.49a4.65,4.65,0,0,1-.32.63c-.28.37-.71.48-1,.26a.66.66,0,0,1-.12-.91l0,0a1.88,1.88,0,0,1,.87-.6C19.42,35.73,19.51,36.08,19.56,36.49Z"/><path class="cls-1" d="M38.27,8.34l.61.25c-.09.21-.13.49-.29.61a2.67,2.67,0,0,1-1,.51A.68.68,0,0,1,37,9.38a.82.82,0,0,1,.27-.67A4.13,4.13,0,0,1,38.27,8.34Z"/><path class="cls-1" d="M77.72,8.33a6.28,6.28,0,0,1,1,.42.68.68,0,0,1,.23.6.72.72,0,0,1-.52.36,1.53,1.53,0,0,1-1.31-.82C77,8.53,77.14,8.41,77.72,8.33Z"/><path class="cls-1" d="M27.7,26.39a.52.52,0,0,1-.53-.51v-.06a1.07,1.07,0,0,1,1-.95.51.51,0,0,1,.57.44v.13A1.07,1.07,0,0,1,27.7,26.39Z"/><path class="cls-1" d="M35.36,17.47a1,1,0,0,1-1,1.05.54.54,0,0,1-.57-.49.11.11,0,0,1,0-.08,1,1,0,0,1,1-.95C35.16,17,35.36,17.19,35.36,17.47Z"/><path class="cls-1" d="M94.33,23.27c0,.28-.21.46-.57.46a1,1,0,0,1-1-1,.5.5,0,0,1,.5-.51h.08A1,1,0,0,1,94.33,23.27Z"/><path class="cls-1" d="M81.16,17.07a1,1,0,0,1,1,1,.51.51,0,0,1-.47.54h-.13a1,1,0,0,1-.94-1,.5.5,0,0,1,.47-.54Z"/><path class="cls-1" d="M22.14,23.67a.52.52,0,0,1-.54-.48v-.06a1,1,0,0,1,.95-1,.52.52,0,0,1,.59.42.48.48,0,0,1,0,.12A1,1,0,0,1,22.14,23.67Z"/><path class="cls-1" d="M87.8,25a1,1,0,0,1,1,.93.51.51,0,0,1-.45.56H88.2a1,1,0,0,1-1-.94.51.51,0,0,1,.45-.56Z"/><path class="cls-1" d="M26.4,82.89c0,.25-.13.42-.45.37A1.49,1.49,0,0,1,24.85,82c0-.3.11-.45.43-.41A1.59,1.59,0,0,1,26.4,82.89Z"/><path class="cls-1" d="M89.68,82.78a1.53,1.53,0,0,1,1.09-1.25c.3,0,.46.08.44.39a1.49,1.49,0,0,1-1,1.23C89.9,83.24,89.67,83.17,89.68,82.78Z"/><path class="cls-1" d="M84.32,24.47c-.67-.89-1.51-2-2.31-3.07-.11-.16-.08-.42-.14-.78a3.07,3.07,0,0,1,.59.43A10.73,10.73,0,0,1,84.32,24.47Z"/><path class="cls-1" d="M81.07,79.52c.07.1.28.27.3.46.06.45-.56,1-1,1a.43.43,0,0,1-.5-.35.41.41,0,0,1,0-.11A1.21,1.21,0,0,1,81.07,79.52Z"/><path class="cls-1" d="M35,79.5a1.15,1.15,0,0,1,1,.9.47.47,0,0,1-.37.56.5.5,0,0,1-.21,0,1.42,1.42,0,0,1-.94-.86.44.44,0,0,1,.26-.57A.53.53,0,0,1,35,79.5Z"/><path class="cls-1" d="M28,36.86a8.34,8.34,0,0,1,.41-4.17A10.16,10.16,0,0,1,28,36.86Z"/><path class="cls-1" d="M34.14,20.83a4.91,4.91,0,0,1-.33.74c-.59.85-1.21,1.69-1.81,2.53a2,2,0,0,1-.29.41,8.89,8.89,0,0,1,2.18-3.8Z"/><path class="cls-1" d="M87.63,32.69A8.49,8.49,0,0,1,88,36.9,10.35,10.35,0,0,1,87.63,32.69Z"/><path class="cls-1" d="M100.53,73.89c0,.65,0,1.18-.09,1.7a1,1,0,0,1-.34.56c-.14.11-.37.09-.56.13,0-.24-.17-.53-.08-.7C99.75,75,100.13,74.5,100.53,73.89Z"/><path class="cls-1" d="M15.53,74c.35.53.72,1,1,1.59a1,1,0,0,1-.07.63.37.37,0,0,1-.32.06c-.22-.15-.55-.32-.59-.54A12.18,12.18,0,0,1,15.45,74Z"/><path class="cls-1" d="M107.4,56a.62.62,0,0,1-.68-.55v-.13c0-.28,0-.69.45-.72a.94.94,0,0,1,.89.84C108,55.83,107.7,56,107.4,56Z"/><path class="cls-1" d="M9.25,55.31c0,.43-.22.71-.6.7s-.67-.15-.73-.55.47-.85.88-.85S9.24,54.84,9.25,55.31Z"/><path class="cls-1" d="M55.4,29.55c-.1.08-.2.2-.32.22-.28.05-.57,0-.85.08a.76.76,0,0,0-.76.71c0,.19-.21.35-.31.53L53,31a1.6,1.6,0,0,0,0-.23c0-1.1,0-1.14,1.09-1.19.41,0,.81-.11,1.22-.16Z"/><path class="cls-1" d="M60.67,29.48c.55,0,1.1.13,1.65.13s.65.19.67.6V31l-.14.07a1.57,1.57,0,0,1-.3-.38c-.26-.75-.39-.86-1.17-.91a1.93,1.93,0,0,1-.48,0,1.46,1.46,0,0,1-.33-.22Z"/><path class="cls-1" d="M101.3,34.57c.08-.06.23-.26.41-.28.35,0,.76.44.76.84s-.25.42-.5.44S101.31,35.13,101.3,34.57Z"/><path class="cls-1" d="M96.68,87.37c.09,1.06,0,1.17-.59,1.44a1.25,1.25,0,0,1-.51,0c0-.23,0-.46.06-.68,0,0,.07-.06.11-.09Z"/><path class="cls-1" d="M102,27.26c-.08,0-.21.22-.36.23a.91.91,0,0,1-.78-.93.54.54,0,0,1,.33-.4C101.55,26.1,102,26.69,102,27.26Z"/><path class="cls-1" d="M15.25,26.39c0,.55-.49,1.06-.84,1.05s-.35-.23-.33-.47c0-.44.51-1,.84-.89C15.07,26.12,15.18,26.32,15.25,26.39Z"/><path class="cls-1" d="M19.33,87.38a6.58,6.58,0,0,1,1,.76c.13.15.07.46.1.69a1.4,1.4,0,0,1-.5,0C19.27,88.54,19.23,88.41,19.33,87.38Z"/><path class="cls-1" d="M54,86.86c.27-.29.49-.73.76-.76s.64.3,1,.49A1.34,1.34,0,0,1,54,86.86Z"/><path class="cls-1" d="M60.24,86.62c.36-.2.7-.55,1-.52s.52.47.78.73C61.52,87.22,61,87.17,60.24,86.62Z"/><path class="cls-1" d="M14.77,34.49a3.52,3.52,0,0,1-.55.76c-.14.11-.51.14-.58.06a.7.7,0,0,1-.09-.64,2,2,0,0,1,.74-.56C14.36,34.08,14.57,34.33,14.77,34.49Z"/><path class="cls-1" d="M59.55,19l.92.16L59.4,20.63l-.4-.3Z"/><path class="cls-1" d="M55.52,19.2l.91-.16L57,20.31l-.37.33Z"/><path class="cls-1" d="M70.52,13.19l3.76,3C72.66,15.65,71.66,14.33,70.52,13.19Z"/><path class="cls-1" d="M41.72,16.17l3.45-2.74A8.4,8.4,0,0,1,41.72,16.17Z"/><path class="cls-1" d="M25,80.84l-.54.18c-.21-.82-.91-1.43-.87-2.46Z"/><path class="cls-1" d="M106.37,33.24l-.44.57-.48-.47v-.05c0-.28.06-.57.11-.85,0,0,.26-.07.29,0C106,32.65,106.16,32.92,106.37,33.24Z"/><path class="cls-1" d="M26.08,13.39c0,.86-.29,1.23-.95,1.39a1,1,0,0,1,.2-1A2.38,2.38,0,0,1,26.08,13.39Z"/><path class="cls-1" d="M90.82,14.79a1.1,1.1,0,0,1-.88-1.27C90.66,13.41,91.07,14,90.82,14.79Z"/><path class="cls-1" d="M9.84,33.27c0-.24,0-.35.05-.42s.37-.56.53-.55c.39,0,.22.4.21.65a2,2,0,0,1,0,.24c0,.27-.11.55-.42.5C10,33.65,9.91,33.36,9.84,33.27Z"/><path class="cls-1" d="M91.62,80.92l-.55-.17,1.3-2.13C92.51,79.6,91.73,80.13,91.62,80.92Z"/><path class="cls-1" d="M10.62,52.2a1.93,1.93,0,0,1,0,.48c-.13.78-.28,1.56-.41,2.28-.56-.93.08-1.82.25-2.76Z"/><path class="cls-1" d="M105.44,52.2c.66,1.76.66,1.78.31,2.88C105.77,54.1,105.38,53.17,105.44,52.2Z"/><path class="cls-1" d="M61.4,88.64H59.19l.69-.63Z"/><path class="cls-1" d="M56.8,88.65H54.56L56.1,88Z"/><path class="cls-1" d="M7.66,48.68c0,.14.09.32,0,.41-.34.58-.73,1.12-1.1,1.68l-.12-.06,1-2.05Z"/><path class="cls-1" d="M108.48,48.58c.38.79.73,1.49,1.07,2.2C108.73,50,108.21,49,108.48,48.58Z"/><path class="cls-1" d="M25.63,39l.85,1-1.31-.23Z"/><path class="cls-1" d="M79.76,105.71H78.51c.09-.27.14-.45.21-.67l1.06.56Z"/><path class="cls-1" d="M37.25,105c.07.2.14.37.25.66l-1.28.06,0-.15Z"/><path class="cls-1" d="M18,23.66l-1.32,1.17C16.84,24.06,17.36,23.57,18,23.66Z"/><path class="cls-1" d="M99.25,24.77,98,23.69a.53.53,0,0,1,.83.27c.14.26.3.52.46.76Z"/><path class="cls-1" d="M56.92,1.64c.4.05.79.94.83,1.9Z"/><path class="cls-1" d="M90.24,39.15l.43.63L89.48,40Z"/><path class="cls-1" d="M67.36,11,67.94,8l.14,0-.61,3.09Z"/><path class="cls-1" d="M48.44,10.69l-.5-2.64.12,0,.52,2.61Z"/><path class="cls-1" d="M60.67,77.12V75C60.57,75.77,61.15,76.42,60.67,77.12Z"/><path class="cls-1" d="M59.73,30l.57.62-.44.37c-.07-.3-.14-.63-.22-1Z"/><path class="cls-1" d="M55.66,30.68l.69-.76c-.08.42-.14.76-.22,1.16Z"/><path class="cls-1" d="M20.08,37.52l.58.86-1-.38Z"/><path class="cls-1" d="M93.37,39.05V38.5l.83.19v.08Z"/><path class="cls-1" d="M55.32,77.1c-.4-.44-.16-.87,0-1.3Z"/><path class="cls-1" d="M95.32,38.38l.52-.74.37.39Z"/><path class="cls-1" d="M55.45,72.92V71h0v1.93Z"/><path d="M39.73,96.27a.8.8,0,0,1,1.19.2c.81,1,1.68,1.87,2.6,2.89-.31-1.33-.59-2.54-.88-3.82l.56-.13.52,2.25.51,2.23a.81.81,0,0,1-1.18-.21c-.83-1-1.71-1.9-2.62-2.9.3,1.31.59,2.55.88,3.82l-.56.15Z"/><path d="M71.18,98.25a11.2,11.2,0,0,1,.39-1.37,2,2,0,0,1,2.53-1.19A2,2,0,0,1,75.52,98a4.71,4.71,0,0,1-.33,1.15,2,2,0,0,1-2.4,1.16A2.11,2.11,0,0,1,71.18,98.25Zm.64.06A1.58,1.58,0,0,0,73,99.85,1.34,1.34,0,0,0,74.55,99a4.42,4.42,0,0,0,.34-1.52,1.35,1.35,0,0,0-2.57-.6A11.51,11.51,0,0,0,71.82,98.31Z"/><path d="M57.52,94h.57v2.22c0,.31,0,.61,0,.91a1.1,1.1,0,0,0,2.19,0,10.38,10.38,0,0,0,0-1.25V94H61c-.05,1.18,0,2.37-.18,3.53-.12.85-.79,1.2-1.78,1.16a1.39,1.39,0,0,1-1.49-1.28C57.46,96.33,57.52,95.19,57.52,94Z"/><path d="M66.11,94.38c.79.09,1.53.17,2.28.28.1,0,.16.26.3.5l-2-.22c-.06.49-.12,1-.18,1.46l1.74.26c0,.15,0,.29-.06.47L66.46,97c-.07.53-.14,1-.21,1.6l1.91.26-.06.5L65.57,99C65.73,97.47,65.91,96,66.11,94.38Z"/><path d="M45.23,99a4.32,4.32,0,0,0,1.15,0,1.18,1.18,0,0,0,.69-.55c.17-.34-.12-.6-.41-.76s-.66-.32-1-.48a1.28,1.28,0,0,1-.9-1.32,1.24,1.24,0,0,1,1.13-1,9.71,9.71,0,0,1,1.21-.1v.51a7.23,7.23,0,0,0-1.23.13.7.7,0,0,0-.45.48.84.84,0,0,0,.34.6,12.39,12.39,0,0,0,1.17.54,1.2,1.2,0,0,1,.82,1.32,1.33,1.33,0,0,1-1.13,1.14,4.58,4.58,0,0,1-.9.09C45.3,99.59,45.11,99.42,45.23,99Z"/><path d="M79.53,97.37l-.15.45-1.67-.5c-.16.48-.3.93-.47,1.42l1.6.53-.16.46-1.59-.48-.67,2-.6-.19,1.43-4.43Z"/><path d="M54.85,94.52H53.53c0-.16,0-.29,0-.5h3.24v.46H55.5v4.13h-.64Z"/><path d="M47.93,95.07l0-.51,3.21-.34c0,.18,0,.31.07.51l-1.29.17c.14,1.36.27,2.7.41,4.09l-.62.05c-.15-1.35-.29-2.68-.44-4.07Z"/><path d="M63.57,98.83l-.63,0c.07-1.37.13-2.7.2-4.1l-1.26-.12v-.49l3.22.15c0,.19,0,.34,0,.53l-1.29-.07C63.72,96.07,63.65,97.42,63.57,98.83Z"/><path d="M52.58,94.12c.11,1.58.22,3.09.32,4.64l-.62.06c-.11-1.55-.22-3.07-.33-4.65Z"/><path d="M39.61,101.13l-.61.18-1.36-4.45.6-.18C38.7,98.17,39.14,99.62,39.61,101.13Z"/><path d="M100.73,106l.55.2-1.42,4.37a.81.81,0,0,1-.9-.79c-.21-1.27-.5-2.54-.76-3.84L97,109.69l-.54-.19c.47-1.47.94-2.92,1.42-4.38a.85.85,0,0,1,.91.81c.2,1.27.48,2.5.74,3.81Z"/><path d="M107.7,106.85l-1.8.18c0,.5.07,1,.12,1.47l1.74-.13c0,.16,0,.3.06.48l-1.75.19c0,.54.08,1,.13,1.6l1.92-.14c0,.17,0,.32,0,.51l-2.55.23c-.13-1.56-.26-3.07-.4-4.65.79-.06,1.55-.14,2.32-.17.08,0,.18.2.27.31Z"/><path d="M93.15,108.14,95,103.85l2.3,1-.18.45-1.72-.72c-.2.47-.39.9-.58,1.37l1.61.71-.18.45-1.64-.67-.64,1.49,1.76.76-.19.47Z"/><path d="M87.44,101.11c0,.15,0,.23,0,.3s0,.13-.08.19a8.62,8.62,0,0,0-1.24-.3.68.68,0,0,0-.57.3.83.83,0,0,0,.13.68,11.16,11.16,0,0,0,.91.91,1.2,1.2,0,0,1,.29,1.56,1.37,1.37,0,0,1-1.49.63,12.42,12.42,0,0,1-1.29-.39l.18-.58a8.2,8.2,0,0,0,1,.42.82.82,0,0,0,1-.25c.23-.37,0-.68-.21-1s-.52-.51-.77-.79a1.18,1.18,0,0,1,1.09-2C86.68,100.86,87.05,101,87.44,101.11Z"/><path d="M104.35,110.55c.06.42-.07.61-.46.57a7.45,7.45,0,0,1-1-.08,2.16,2.16,0,0,1-1.89-2.54,2.23,2.23,0,0,1,2.47-2.07,10.48,10.48,0,0,1,1.38.25c-.05.26-.09.4-.12.57-.93-.36-1.84-.6-2.59.22a1.88,1.88,0,0,0-.33,2.11C102.36,110.65,103.34,110.65,104.35,110.55Z"/><path d="M92.4,103l-.21.48c-.81-.62-1.65-1.06-2.6-.44a1.86,1.86,0,0,0-.83,2c.22,1.12,1.16,1.38,2.12,1.54-.1.5-.13.56-.59.42a4.85,4.85,0,0,1-1.11-.44,2,2,0,0,1-1.09-2.21,2.31,2.31,0,0,1,1.72-2A3,3,0,0,1,92.4,103Z"/><path d="M92,107.68l-.58-.27,2-4.21.57.27Z"/><path d="M15.55,111c-.48.18-.81.17-1.12-.3-.71-1.09-1.5-2.14-2.28-3.25l.42,3.91-.57.06-.48-4.53c.67-.28.74-.25,1.12.28l2.26,3.21c-.14-1.36-.27-2.59-.4-3.88l.57-.09C15.22,108,15.39,109.47,15.55,111Z"/><path d="M27.37,106.55l-.56.16-1.35-4.4a.84.84,0,0,1,1.22.13c.88.92,1.83,1.77,2.79,2.7l-1.15-3.74.55-.19c.46,1.49.91,2.94,1.36,4.42a.82.82,0,0,1-1.18-.13c-.9-.91-1.85-1.77-2.84-2.71Z"/><path d="M16.66,110.71l-1.4-4.55c.83-.15,1.62-.33,2.42-.4a1.51,1.51,0,0,1,1.36.67c.87,1.2,1.07,3-1,3.82C17.6,110.42,17.16,110.54,16.66,110.71Zm-.61-4.16c.36,1.18.71,2.3,1.06,3.44.81-.19,1.56-.43,1.8-1.29a2,2,0,0,0-.59-2.06c-.68-.65-1.46-.37-2.27-.09Z"/><path d="M22.23,108.71c0-1.09-.09-2.16-.13-3.22,0-.42,0-.84-.05-1.25a.55.55,0,0,1,.36-.66c.34-.16.49,0,.68.19l3.1,3.23c-.26.24-.54.25-.87-.12-.51-.58-.53-.56-1.27-.23l-.61.27c-.72.32-.76.32-.66,1.11C22.84,108.44,22.73,108.66,22.23,108.71ZM24.36,106l-1.66-1.63v2.36Z"/><path d="M10.17,111.34c.06-1.56.11-3.08.17-4.61H11c-.05,1.55-.1,3.08-.15,4.61Z"/><path d="M21.65,109l-.59.24c-.58-1.44-1.15-2.86-1.74-4.3l.58-.26Z"/><path class="cls-1" d="M71.82,98.31a12.06,12.06,0,0,1,.49-1.43,1.35,1.35,0,0,1,1.56-.74,1.31,1.31,0,0,1,1,1.34A4.25,4.25,0,0,1,74.54,99a1.35,1.35,0,0,1-1.58.85A1.6,1.6,0,0,1,71.82,98.31Z"/><path class="cls-1" d="M16.05,106.55c.81-.28,1.59-.56,2.28.09a2,2,0,0,1,.59,2.06c-.25.86-1,1.1-1.8,1.29C16.76,108.85,16.41,107.73,16.05,106.55Z"/><path class="cls-1" d="M24.36,106l-1.66.74v-2.37Z"/></g><text class="cls-2" transform="translate(121.21 46.32)">Indian Institu<tspan class="cls-3" x="162.41" y="0">t</tspan><tspan x="171.64" y="0">e of Science,</tspan><tspan x="0" y="33.6">Ban</tspan><tspan class="cls-4" x="46.42" y="33.6">g</tspan><tspan x="60.02" y="33.6">alo</tspan><tspan class="cls-5" x="96.15" y="33.6">r</tspan><tspan x="107.32" y="33.6">e</tspan></text></g></g></svg>